<?xml version="1.0" encoding="UTF-8"?>
<svg version="1.1" xmlns="http://www.w3.org/2000/svg" width="250" height="250">
<path d="M0 0 C2.1540032 1.10683109 4.22825651 2.30141287 6.30664062 3.54443359 C7.08676514 3.99447754 7.86688965 4.44452148 8.6706543 4.90820312 C11.14050459 6.3363898 13.59830151 7.78404452 16.05664062 9.23193359 C17.60895813 10.13091556 19.16232761 11.02808373 20.71679688 11.92333984 C23.86886314 13.74007742 27.01704699 15.56325421 30.16210938 17.39208984 C35.15824946 20.29439941 40.166871 23.17444965 45.18164062 26.04443359 C46.03274414 26.53290771 46.88384766 27.02138184 47.76074219 27.5246582 C52.74762064 30.37686898 57.76067004 33.17365166 62.80273438 35.92724609 C63.93630371 36.55010498 65.06987305 37.17296387 66.23779297 37.81469727 C68.44801513 39.02704801 70.66302294 40.23072529 72.88330078 41.42456055 C73.89054199 41.97845459 74.8977832 42.53234863 75.93554688 43.10302734 C77.2746814 43.82897095 77.2746814 43.82897095 78.64086914 44.56958008 C81.99715334 46.8791242 84.64585631 49.06923438 85.44071102 53.25398922 C85.61067676 55.77883002 85.65103858 58.2774815 85.65014648 60.80810547 C85.66530304 61.76640762 85.68045959 62.72470978 85.69607544 63.71205139 C85.74080893 66.87503681 85.75689206 70.03742626 85.77148438 73.20068359 C85.79408908 75.40117732 85.81799766 77.601658 85.84315491 79.80212402 C85.89148497 84.41202019 85.92599755 89.02175276 85.95043945 93.63183594 C85.98258943 99.54041205 86.04588539 105.44815285 86.11913204 111.35634613 C86.17255395 115.89956624 86.21103838 120.44281657 86.24484444 124.98622131 C86.26255477 127.1647579 86.28454782 129.34326402 86.31089592 131.52171326 C86.34516669 134.56651775 86.3597126 137.61079185 86.36889648 140.65576172 C86.38274887 141.55565323 86.39660126 142.45554474 86.41087341 143.38270569 C86.40232143 148.16023213 86.19422706 151.36936135 83.05664062 155.23193359 C80.56738281 157.03369141 80.56738281 157.03369141 77.60351562 158.68505859 C76.51772217 159.29913574 75.43192871 159.91321289 74.31323242 160.54589844 C73.1443965 161.19129422 71.97553194 161.83663815 70.80664062 162.48193359 C69.60376906 163.15840216 68.40170533 163.83630914 67.20043945 164.515625 C64.85024924 165.84416782 62.4976296 167.16794118 60.14306641 168.48876953 C56.63672539 170.46909502 53.18507362 172.51530567 49.74414062 174.60693359 C42.36644363 179.06925033 34.93183732 183.43319857 27.49414062 187.79443359 C26.88452484 188.15228943 26.27490906 188.51014526 25.64682007 188.87884521 C22.65592086 190.63422738 19.6619952 192.38390567 16.66162109 194.12304688 C14.18168269 195.56342837 11.72802609 197.04009745 9.28369141 198.54003906 C8.05310513 199.2798604 6.8224751 200.01960897 5.59179688 200.75927734 C4.50390869 201.42564209 3.41602051 202.09200684 2.29516602 202.77856445 C-1.48068857 204.47307349 -3.84436181 204.68854483 -7.94335938 204.23193359 C-10.69970703 203.13720703 -10.69970703 203.13720703 -13.35742188 201.59130859 C-14.35483398 201.02138184 -15.35224609 200.45145508 -16.37988281 199.86425781 C-17.43208008 199.24309082 -18.48427734 198.62192383 -19.56835938 197.98193359 C-21.22399902 197.02891357 -21.22399902 197.02891357 -22.91308594 196.05664062 C-25.1789997 194.75108612 -27.4413831 193.43938518 -29.70019531 192.12158203 C-33.4960561 189.90990163 -37.31200572 187.73523001 -41.13134766 185.56445312 C-43.69686757 184.10493779 -46.25819332 182.63831727 -48.81835938 181.16943359 C-52.31508599 179.16364256 -55.81521651 177.1639976 -59.31835938 175.16943359 C-63.69313801 172.67849305 -68.06263954 170.17853191 -72.42871094 167.67236328 C-74.10598369 166.7115954 -75.78502758 165.75391297 -77.46582031 164.79931641 C-79.83797034 163.45143994 -82.20375203 162.09298728 -84.56835938 160.73193359 C-85.2731543 160.33474121 -85.97794922 159.93754883 -86.70410156 159.52832031 C-92.98775476 155.88392632 -92.98775476 155.88392632 -94.94335938 152.23193359 C-95.39949289 149.0187634 -95.37358084 145.82671956 -95.36328125 142.58569336 C-95.37175079 141.60803009 -95.38022034 140.63036682 -95.38894653 139.62307739 C-95.41235512 136.3896994 -95.41333777 133.15679618 -95.41210938 129.92333984 C-95.41920849 127.67658802 -95.42690711 125.42983802 -95.43518066 123.18309021 C-95.44863428 118.47300172 -95.45019018 113.76308086 -95.44433594 109.05297852 C-95.43843842 103.01554462 -95.46903026 96.97891447 -95.50945282 90.94163609 C-95.53529514 86.30136273 -95.53821037 81.66128381 -95.53456116 77.02094841 C-95.53625557 74.79498207 -95.54592886 72.56900704 -95.56370544 70.34311104 C-95.58582644 67.23071532 -95.57622741 64.11995819 -95.55859375 61.00756836 C-95.57185699 60.08740433 -95.58512024 59.1672403 -95.5987854 58.2191925 C-95.54007334 53.76203449 -95.42863617 51.85112314 -92.60144043 48.24375916 C-89.58001354 45.95692752 -86.46932311 44.06505141 -83.13085938 42.29443359 C-81.70136445 41.51260463 -80.27305514 40.72860546 -78.84570312 39.94287109 C-78.06565918 39.51458008 -77.28561523 39.08628906 -76.48193359 38.64501953 C-71.67951254 35.97177342 -66.93856987 33.19257421 -62.19335938 30.41943359 C-61.16871582 29.82106689 -60.14407227 29.2227002 -59.08837891 28.60620117 C-51.71701645 24.29163934 -44.38248011 19.91834618 -37.06542969 15.51245117 C-31.53941422 12.18548399 -26.00011648 8.88231887 -20.44335938 5.60693359 C-19.74283447 5.19282227 -19.04230957 4.77871094 -18.32055664 4.35205078 C-16.53430146 3.30149466 -14.73930429 2.26583766 -12.94335938 1.23193359 C-12.27304688 0.81169922 -11.60273437 0.39146484 -10.91210938 -0.04150391 C-7.19244653 -1.41423662 -3.71376314 -1.46777624 0 0 Z " fill="#2A2828" transform="translate(128.943359375,23.76806640625)"/>
<path d="M0 0 C2.1540032 1.10683109 4.22825651 2.30141287 6.30664062 3.54443359 C7.08676514 3.99447754 7.86688965 4.44452148 8.6706543 4.90820312 C11.14050459 6.3363898 13.59830151 7.78404452 16.05664062 9.23193359 C17.60895813 10.13091556 19.16232761 11.02808373 20.71679688 11.92333984 C23.86886314 13.74007742 27.01704699 15.56325421 30.16210938 17.39208984 C35.15824946 20.29439941 40.166871 23.17444965 45.18164062 26.04443359 C46.03274414 26.53290771 46.88384766 27.02138184 47.76074219 27.5246582 C52.74762064 30.37686898 57.76067004 33.17365166 62.80273438 35.92724609 C63.93630371 36.55010498 65.06987305 37.17296387 66.23779297 37.81469727 C68.44801513 39.02704801 70.66302294 40.23072529 72.88330078 41.42456055 C73.89054199 41.97845459 74.8977832 42.53234863 75.93554688 43.10302734 C77.2746814 43.82897095 77.2746814 43.82897095 78.64086914 44.56958008 C81.99715334 46.8791242 84.64585631 49.06923438 85.44071102 53.25398922 C85.61067676 55.77883002 85.65103858 58.2774815 85.65014648 60.80810547 C85.66530304 61.76640762 85.68045959 62.72470978 85.69607544 63.71205139 C85.74080893 66.87503681 85.75689206 70.03742626 85.77148438 73.20068359 C85.79408908 75.40117732 85.81799766 77.601658 85.84315491 79.80212402 C85.89148497 84.41202019 85.92599755 89.02175276 85.95043945 93.63183594 C85.98258943 99.54041205 86.04588539 105.44815285 86.11913204 111.35634613 C86.17255395 115.89956624 86.21103838 120.44281657 86.24484444 124.98622131 C86.26255477 127.1647579 86.28454782 129.34326402 86.31089592 131.52171326 C86.34516669 134.56651775 86.3597126 137.61079185 86.36889648 140.65576172 C86.38274887 141.55565323 86.39660126 142.45554474 86.41087341 143.38270569 C86.40232143 148.16023213 86.19422706 151.36936135 83.05664062 155.23193359 C80.56738281 157.03369141 80.56738281 157.03369141 77.60351562 158.68505859 C76.51772217 159.29913574 75.43192871 159.91321289 74.31323242 160.54589844 C73.1443965 161.19129422 71.97553194 161.83663815 70.80664062 162.48193359 C69.60376906 163.15840216 68.40170533 163.83630914 67.20043945 164.515625 C64.85024924 165.84416782 62.4976296 167.16794118 60.14306641 168.48876953 C56.63672539 170.46909502 53.18507362 172.51530567 49.74414062 174.60693359 C42.36644363 179.06925033 34.93183732 183.43319857 27.49414062 187.79443359 C26.88452484 188.15228943 26.27490906 188.51014526 25.64682007 188.87884521 C22.65592086 190.63422738 19.6619952 192.38390567 16.66162109 194.12304688 C14.18168269 195.56342837 11.72802609 197.04009745 9.28369141 198.54003906 C8.05310513 199.2798604 6.8224751 200.01960897 5.59179688 200.75927734 C4.50390869 201.42564209 3.41602051 202.09200684 2.29516602 202.77856445 C-1.48068857 204.47307349 -3.84436181 204.68854483 -7.94335938 204.23193359 C-10.69970703 203.13720703 -10.69970703 203.13720703 -13.35742188 201.59130859 C-14.35483398 201.02138184 -15.35224609 200.45145508 -16.37988281 199.86425781 C-17.43208008 199.24309082 -18.48427734 198.62192383 -19.56835938 197.98193359 C-21.22399902 197.02891357 -21.22399902 197.02891357 -22.91308594 196.05664062 C-25.1789997 194.75108612 -27.4413831 193.43938518 -29.70019531 192.12158203 C-33.4960561 189.90990163 -37.31200572 187.73523001 -41.13134766 185.56445312 C-43.69686757 184.10493779 -46.25819332 182.63831727 -48.81835938 181.16943359 C-52.31508599 179.16364256 -55.81521651 177.1639976 -59.31835938 175.16943359 C-63.69313801 172.67849305 -68.06263954 170.17853191 -72.42871094 167.67236328 C-74.10598369 166.7115954 -75.78502758 165.75391297 -77.46582031 164.79931641 C-79.83797034 163.45143994 -82.20375203 162.09298728 -84.56835938 160.73193359 C-85.2731543 160.33474121 -85.97794922 159.93754883 -86.70410156 159.52832031 C-92.98775476 155.88392632 -92.98775476 155.88392632 -94.94335938 152.23193359 C-95.39949289 149.0187634 -95.37358084 145.82671956 -95.36328125 142.58569336 C-95.37175079 141.60803009 -95.38022034 140.63036682 -95.38894653 139.62307739 C-95.41235512 136.3896994 -95.41333777 133.15679618 -95.41210938 129.92333984 C-95.41920849 127.67658802 -95.42690711 125.42983802 -95.43518066 123.18309021 C-95.44863428 118.47300172 -95.45019018 113.76308086 -95.44433594 109.05297852 C-95.43843842 103.01554462 -95.46903026 96.97891447 -95.50945282 90.94163609 C-95.53529514 86.30136273 -95.53821037 81.66128381 -95.53456116 77.02094841 C-95.53625557 74.79498207 -95.54592886 72.56900704 -95.56370544 70.34311104 C-95.58582644 67.23071532 -95.57622741 64.11995819 -95.55859375 61.00756836 C-95.57185699 60.08740433 -95.58512024 59.1672403 -95.5987854 58.2191925 C-95.54007334 53.76203449 -95.42863617 51.85112314 -92.60144043 48.24375916 C-89.58001354 45.95692752 -86.46932311 44.06505141 -83.13085938 42.29443359 C-81.70136445 41.51260463 -80.27305514 40.72860546 -78.84570312 39.94287109 C-78.06565918 39.51458008 -77.28561523 39.08628906 -76.48193359 38.64501953 C-71.67951254 35.97177342 -66.93856987 33.19257421 -62.19335938 30.41943359 C-61.16871582 29.82106689 -60.14407227 29.2227002 -59.08837891 28.60620117 C-51.71701645 24.29163934 -44.38248011 19.91834618 -37.06542969 15.51245117 C-31.53941422 12.18548399 -26.00011648 8.88231887 -20.44335938 5.60693359 C-19.74283447 5.19282227 -19.04230957 4.77871094 -18.32055664 4.35205078 C-16.53430146 3.30149466 -14.73930429 2.26583766 -12.94335938 1.23193359 C-12.27304688 0.81169922 -11.60273437 0.39146484 -10.91210938 -0.04150391 C-7.19244653 -1.41423662 -3.71376314 -1.46777624 0 0 Z M-15.63085938 14.85693359 C-17.06743982 15.79913177 -18.50623606 16.73796047 -19.94726562 17.67333984 C-20.63836426 18.12338379 -21.32946289 18.57342773 -22.04150391 19.03710938 C-24.3122488 20.46368518 -26.63997901 21.65903445 -29.06835938 22.79443359 C-33.87111242 25.07069638 -38.23904857 27.93416889 -42.67089844 30.84521484 C-47.93417944 34.28269578 -53.36642456 37.32965119 -58.94335938 40.23193359 C-58.94335938 40.89193359 -58.94335938 41.55193359 -58.94335938 42.23193359 C-59.6678125 42.32732422 -60.39226562 42.42271484 -61.13867188 42.52099609 C-64.35852162 43.33716971 -66.17989926 44.60912194 -68.81835938 46.60693359 C-72.78722905 49.50090106 -76.40724091 51.41748621 -80.94335938 53.23193359 C-83.24325103 54.16061109 -83.24325103 54.16061109 -84.94335938 56.23193359 C-85.32405106 59.28165749 -85.44908309 61.96853643 -85.39746094 65.01782227 C-85.39804504 65.91558884 -85.39862915 66.81335541 -85.39923096 67.73832703 C-85.3964416 70.70924386 -85.36530938 73.67916053 -85.33398438 76.64990234 C-85.32652502 78.70827181 -85.32083065 80.76664837 -85.3168335 82.82502747 C-85.3015532 88.24542817 -85.26225054 93.66540086 -85.21801758 99.08563232 C-85.17711663 104.6154603 -85.15883354 110.14535737 -85.13867188 115.67529297 C-85.09575878 126.52769468 -85.02747832 137.37977856 -84.94335938 148.23193359 C-83.21186829 149.21561686 -81.4803772 150.19930013 -79.74888611 151.1829834 C-77.27984909 152.61741071 -74.89555431 154.16957732 -72.50585938 155.73193359 C-67.19287194 159.13545229 -61.91470851 162.0939701 -56.00585938 164.35693359 C-53.94335938 165.23193359 -53.94335938 165.23193359 -52.94335938 167.23193359 C-50.93822081 168.36353593 -50.93822081 168.36353593 -48.56835938 169.35693359 C-47.776875 169.71013672 -46.98539063 170.06333984 -46.16992188 170.42724609 C-43.86771133 171.40187745 -43.86771133 171.40187745 -40.94335938 171.23193359 C-40.94335938 171.89193359 -40.94335938 172.55193359 -40.94335938 173.23193359 C-35.87556155 177.15538997 -30.18868064 179.84408442 -23.94335938 181.23193359 C-23.94335938 181.89193359 -23.94335938 182.55193359 -23.94335938 183.23193359 C-22.48929688 183.78880859 -22.48929688 183.78880859 -21.00585938 184.35693359 C-17.01268357 186.0416812 -13.65171014 188.38941192 -10.15429688 190.92724609 C-7.69892307 192.37617692 -5.76855923 192.92009111 -2.94335938 193.23193359 C-0.67478791 192.39115487 -0.67478791 192.39115487 1.05664062 191.23193359 C1.05664062 190.57193359 1.05664062 189.91193359 1.05664062 189.23193359 C2.00539063 188.92255859 2.95414062 188.61318359 3.93164062 188.29443359 C6.9174447 187.35798617 6.9174447 187.35798617 9.05664062 186.23193359 C9.05664062 185.57193359 9.05664062 184.91193359 9.05664062 184.23193359 C9.60191406 184.13267578 10.1471875 184.03341797 10.70898438 183.93115234 C13.66507439 183.05071954 15.9779698 181.63757658 18.61914062 180.04443359 C22.57882069 177.68496404 26.55164346 175.40009659 30.61914062 173.23193359 C35.47168614 170.6228113 40.06466342 167.70669895 44.64648438 164.64990234 C46.8498523 163.3535935 48.56027958 162.67791921 51.05664062 162.23193359 C51.05664062 161.57193359 51.05664062 160.91193359 51.05664062 160.23193359 C51.81976563 160.12880859 52.58289063 160.02568359 53.36914062 159.91943359 C56.27755106 159.17542162 57.12993951 158.43387773 59.05664062 156.23193359 C59.71664062 155.90193359 60.37664062 155.57193359 61.05664062 155.23193359 C61.05664062 154.57193359 61.05664062 153.91193359 61.05664062 153.23193359 C61.71664062 153.14943359 62.37664062 153.06693359 63.05664062 152.98193359 C65.77280315 152.30289296 67.77307707 151.4509723 70.24414062 150.18505859 C70.95957031 149.82057617 71.675 149.45609375 72.41210938 149.08056641 C72.95480469 148.80051758 73.4975 148.52046875 74.05664062 148.23193359 C74.14921699 136.15811756 74.22034283 124.08438561 74.26388931 112.01028728 C74.28478679 106.40411046 74.31314407 100.79817599 74.35839844 95.19213867 C74.4017788 89.78456545 74.42576144 84.37722572 74.4361496 78.96949196 C74.443555 76.90373876 74.45801559 74.8379987 74.47956085 72.77234459 C74.50849087 69.88448592 74.51260098 66.99759879 74.51074219 64.10961914 C74.53231384 62.82136986 74.53231384 62.82136986 74.55432129 61.50709534 C74.5989585 56.94032977 74.5989585 56.94032977 72.17645264 53.27033997 C71.47691467 52.92766586 70.77737671 52.58499176 70.05664062 52.23193359 C69.27417969 51.73951172 68.49171875 51.24708984 67.68554688 50.73974609 C64.82953584 49.10167736 61.93524254 47.58678007 58.99414062 46.10693359 C57.97191406 45.58873047 56.9496875 45.07052734 55.89648438 44.53662109 C53.57304487 43.46918121 51.55039617 42.72231238 49.05664062 42.23193359 C49.05664062 41.57193359 49.05664062 40.91193359 49.05664062 40.23193359 C48.53714844 39.97798828 48.01765625 39.72404297 47.48242188 39.46240234 C46.43634766 38.94613281 46.43634766 38.94613281 45.36914062 38.41943359 C44.68464844 38.08298828 44.00015625 37.74654297 43.29492188 37.39990234 C41.75825924 36.59804872 40.24794578 35.74423687 38.76367188 34.84912109 C34.73077765 32.43985961 30.56480326 30.29160892 26.40820312 28.10498047 C23.52976178 26.582285 20.76879603 25.0400372 18.05664062 23.23193359 C17.06664062 23.23193359 16.07664062 23.23193359 15.05664062 23.23193359 C14.82203125 22.60802734 14.58742188 21.98412109 14.34570312 21.34130859 C12.68840987 18.62937418 11.44248072 18.34217362 8.43164062 17.48193359 C7.614375 17.23958984 6.79710937 16.99724609 5.95507812 16.74755859 C5.32859375 16.57740234 4.70210938 16.40724609 4.05664062 16.23193359 C4.05664062 15.57193359 4.05664062 14.91193359 4.05664062 14.23193359 C3.00476563 13.75755859 1.95289063 13.28318359 0.86914062 12.79443359 C0.27746094 12.52759766 -0.31421875 12.26076172 -0.92382812 11.98583984 C-1.59027344 11.73705078 -2.25671875 11.48826172 -2.94335938 11.23193359 C-3.6884375 10.93931641 -4.43351562 10.64669922 -5.20117188 10.34521484 C-9.50949347 10.16723575 -12.16127949 12.48803389 -15.63085938 14.85693359 Z " fill="#EF7F70" transform="translate(128.943359375,23.76806640625)"/>
<path d="M0 0 C2.1540032 1.10683109 4.22825651 2.30141287 6.30664062 3.54443359 C7.08676514 3.99447754 7.86688965 4.44452148 8.6706543 4.90820312 C11.14050459 6.3363898 13.59830151 7.78404452 16.05664062 9.23193359 C17.60895813 10.13091556 19.16232761 11.02808373 20.71679688 11.92333984 C23.86886314 13.74007742 27.01704699 15.56325421 30.16210938 17.39208984 C35.15824946 20.29439941 40.166871 23.17444965 45.18164062 26.04443359 C46.03274414 26.53290771 46.88384766 27.02138184 47.76074219 27.5246582 C52.74762064 30.37686898 57.76067004 33.17365166 62.80273438 35.92724609 C63.93630371 36.55010498 65.06987305 37.17296387 66.23779297 37.81469727 C68.44801513 39.02704801 70.66302294 40.23072529 72.88330078 41.42456055 C73.89054199 41.97845459 74.8977832 42.53234863 75.93554688 43.10302734 C77.2746814 43.82897095 77.2746814 43.82897095 78.64086914 44.56958008 C81.99715334 46.8791242 84.64585631 49.06923438 85.44071102 53.25398922 C85.61067676 55.77883002 85.65103858 58.2774815 85.65014648 60.80810547 C85.66530304 61.76640762 85.68045959 62.72470978 85.69607544 63.71205139 C85.74080893 66.87503681 85.75689206 70.03742626 85.77148438 73.20068359 C85.79408908 75.40117732 85.81799766 77.601658 85.84315491 79.80212402 C85.89148497 84.41202019 85.92599755 89.02175276 85.95043945 93.63183594 C85.98258943 99.54041205 86.04588539 105.44815285 86.11913204 111.35634613 C86.17255395 115.89956624 86.21103838 120.44281657 86.24484444 124.98622131 C86.26255477 127.1647579 86.28454782 129.34326402 86.31089592 131.52171326 C86.34516669 134.56651775 86.3597126 137.61079185 86.36889648 140.65576172 C86.38274887 141.55565323 86.39660126 142.45554474 86.41087341 143.38270569 C86.40232143 148.16023213 86.19422706 151.36936135 83.05664062 155.23193359 C80.56738281 157.03369141 80.56738281 157.03369141 77.60351562 158.68505859 C76.51772217 159.29913574 75.43192871 159.91321289 74.31323242 160.54589844 C73.1443965 161.19129422 71.97553194 161.83663815 70.80664062 162.48193359 C69.60376906 163.15840216 68.40170533 163.83630914 67.20043945 164.515625 C64.85024924 165.84416782 62.4976296 167.16794118 60.14306641 168.48876953 C56.63672539 170.46909502 53.18507362 172.51530567 49.74414062 174.60693359 C42.36644363 179.06925033 34.93183732 183.43319857 27.49414062 187.79443359 C26.88452484 188.15228943 26.27490906 188.51014526 25.64682007 188.87884521 C22.65592086 190.63422738 19.6619952 192.38390567 16.66162109 194.12304688 C14.18168269 195.56342837 11.72802609 197.04009745 9.28369141 198.54003906 C8.05310513 199.2798604 6.8224751 200.01960897 5.59179688 200.75927734 C4.50390869 201.42564209 3.41602051 202.09200684 2.29516602 202.77856445 C-1.48068857 204.47307349 -3.84436181 204.68854483 -7.94335938 204.23193359 C-10.69970703 203.13720703 -10.69970703 203.13720703 -13.35742188 201.59130859 C-14.35483398 201.02138184 -15.35224609 200.45145508 -16.37988281 199.86425781 C-17.43208008 199.24309082 -18.48427734 198.62192383 -19.56835938 197.98193359 C-21.22399902 197.02891357 -21.22399902 197.02891357 -22.91308594 196.05664062 C-25.1789997 194.75108612 -27.4413831 193.43938518 -29.70019531 192.12158203 C-33.4960561 189.90990163 -37.31200572 187.73523001 -41.13134766 185.56445312 C-43.69686757 184.10493779 -46.25819332 182.63831727 -48.81835938 181.16943359 C-52.31508599 179.16364256 -55.81521651 177.1639976 -59.31835938 175.16943359 C-63.69313801 172.67849305 -68.06263954 170.17853191 -72.42871094 167.67236328 C-74.10598369 166.7115954 -75.78502758 165.75391297 -77.46582031 164.79931641 C-79.83797034 163.45143994 -82.20375203 162.09298728 -84.56835938 160.73193359 C-85.2731543 160.33474121 -85.97794922 159.93754883 -86.70410156 159.52832031 C-92.98775476 155.88392632 -92.98775476 155.88392632 -94.94335938 152.23193359 C-95.39949289 149.0187634 -95.37358084 145.82671956 -95.36328125 142.58569336 C-95.37175079 141.60803009 -95.38022034 140.63036682 -95.38894653 139.62307739 C-95.41235512 136.3896994 -95.41333777 133.15679618 -95.41210938 129.92333984 C-95.41920849 127.67658802 -95.42690711 125.42983802 -95.43518066 123.18309021 C-95.44863428 118.47300172 -95.45019018 113.76308086 -95.44433594 109.05297852 C-95.43843842 103.01554462 -95.46903026 96.97891447 -95.50945282 90.94163609 C-95.53529514 86.30136273 -95.53821037 81.66128381 -95.53456116 77.02094841 C-95.53625557 74.79498207 -95.54592886 72.56900704 -95.56370544 70.34311104 C-95.58582644 67.23071532 -95.57622741 64.11995819 -95.55859375 61.00756836 C-95.57185699 60.08740433 -95.58512024 59.1672403 -95.5987854 58.2191925 C-95.54007334 53.76203449 -95.42863617 51.85112314 -92.60144043 48.24375916 C-89.58001354 45.95692752 -86.46932311 44.06505141 -83.13085938 42.29443359 C-81.70136445 41.51260463 -80.27305514 40.72860546 -78.84570312 39.94287109 C-78.06565918 39.51458008 -77.28561523 39.08628906 -76.48193359 38.64501953 C-71.67951254 35.97177342 -66.93856987 33.19257421 -62.19335938 30.41943359 C-61.16871582 29.82106689 -60.14407227 29.2227002 -59.08837891 28.60620117 C-51.71701645 24.29163934 -44.38248011 19.91834618 -37.06542969 15.51245117 C-31.53941422 12.18548399 -26.00011648 8.88231887 -20.44335938 5.60693359 C-19.74283447 5.19282227 -19.04230957 4.77871094 -18.32055664 4.35205078 C-16.53430146 3.30149466 -14.73930429 2.26583766 -12.94335938 1.23193359 C-12.27304688 0.81169922 -11.60273437 0.39146484 -10.91210938 -0.04150391 C-7.19244653 -1.41423662 -3.71376314 -1.46777624 0 0 Z M-15.63085938 14.85693359 C-17.06743982 15.79913177 -18.50623606 16.73796047 -19.94726562 17.67333984 C-20.63836426 18.12338379 -21.32946289 18.57342773 -22.04150391 19.03710938 C-24.3122488 20.46368518 -26.63997901 21.65903445 -29.06835938 22.79443359 C-33.87111242 25.07069638 -38.23904857 27.93416889 -42.67089844 30.84521484 C-47.93417944 34.28269578 -53.36642456 37.32965119 -58.94335938 40.23193359 C-58.94335938 40.89193359 -58.94335938 41.55193359 -58.94335938 42.23193359 C-59.6678125 42.32732422 -60.39226562 42.42271484 -61.13867188 42.52099609 C-64.35852162 43.33716971 -66.17989926 44.60912194 -68.81835938 46.60693359 C-72.77566762 49.48927154 -76.37319832 51.5181232 -80.94335938 53.23193359 C-81.93335938 53.72693359 -81.93335938 53.72693359 -82.94335938 54.23193359 C-82.28335938 53.24193359 -81.62335938 52.25193359 -80.94335938 51.23193359 C-80.94335938 50.24193359 -80.94335938 49.25193359 -80.94335938 48.23193359 C-86.13729503 47.83488976 -86.13729503 47.83488976 -91.04579163 49.15246582 C-94.15410218 52.55873768 -93.49136212 56.34835234 -93.44506836 60.79638672 C-93.45047134 61.77711655 -93.45587433 62.75784637 -93.46144104 63.76829529 C-93.47396976 67.01689641 -93.45740937 70.26461845 -93.43945312 73.51318359 C-93.43960802 75.76615445 -93.44109535 78.01912557 -93.44386292 80.27209473 C-93.44524877 84.99662029 -93.43265739 89.72084297 -93.40991211 94.4453125 C-93.38152721 100.50859099 -93.38426246 106.57136596 -93.39700222 112.6346817 C-93.40394923 117.28774331 -93.39618126 121.94068805 -93.38374519 126.59373474 C-93.37922119 128.82970227 -93.37890213 131.06568231 -93.38281059 133.301651 C-93.38571319 136.42385684 -93.36926102 139.54536293 -93.34741211 142.66748047 C-93.35191376 143.5964061 -93.35641541 144.52533173 -93.36105347 145.48240662 C-93.35114883 146.33202469 -93.3412442 147.18164276 -93.33103943 148.05700684 C-93.32860953 148.79515373 -93.32617964 149.53330063 -93.32367611 150.29381561 C-92.83528579 152.78268338 -91.926556 153.69685132 -89.94335938 155.23193359 C-89.28335938 155.23193359 -88.62335938 155.23193359 -87.94335938 155.23193359 C-87.94335938 155.89193359 -87.94335938 156.55193359 -87.94335938 157.23193359 C-87.193125 157.59544922 -86.44289063 157.95896484 -85.66992188 158.33349609 C-79.83853323 161.19778019 -74.18628789 164.19285793 -68.65039062 167.59130859 C-63.1514446 170.92400315 -57.53288481 174.05445884 -51.94335938 177.23193359 C-48.75488825 179.04950788 -45.56740969 180.86822329 -42.39648438 182.71630859 C-41.66945312 183.13396484 -40.94242188 183.55162109 -40.19335938 183.98193359 C-39.45601562 184.40990234 -38.71867187 184.83787109 -37.95898438 185.27880859 C-35.86295067 186.44567547 -35.86295067 186.44567547 -32.94335938 186.23193359 C-32.94335938 186.89193359 -32.94335938 187.55193359 -32.94335938 188.23193359 C-32.28851563 188.58384766 -31.63367188 188.93576172 -30.95898438 189.29833984 C-29.59 190.03890625 -29.59 190.03890625 -28.19335938 190.79443359 C-27.19046875 191.33583984 -26.18757813 191.87724609 -25.15429688 192.43505859 C-23.02706973 193.62547768 -20.92661202 194.8651484 -18.85742188 196.15380859 C-10.51999347 201.3774598 -10.51999347 201.3774598 -0.94335938 202.23193359 C2.5276092 200.95939503 2.5276092 200.95939503 5.05664062 199.23193359 C5.05664062 198.57193359 5.05664062 197.91193359 5.05664062 197.23193359 C6.01376953 196.95929688 6.01376953 196.95929688 6.99023438 196.68115234 C8.22966797 196.30410156 8.22966797 196.30410156 9.49414062 195.91943359 C10.31785156 195.67580078 11.1415625 195.43216797 11.99023438 195.18115234 C12.67214844 194.86791016 13.3540625 194.55466797 14.05664062 194.23193359 C14.38664062 193.24193359 14.71664062 192.25193359 15.05664062 191.23193359 C16.67775606 190.81803178 18.2995096 190.40651858 19.92382812 190.00537109 C23.43174189 188.7332705 26.17323938 186.43315276 29.16601562 184.24365234 C32.47182313 181.94298901 35.87224847 179.91254747 39.36914062 177.91943359 C39.95574463 177.58218262 40.54234863 177.24493164 41.14672852 176.89746094 C44.37136768 175.0759793 47.58261687 173.51595363 51.05664062 172.23193359 C51.05664062 171.57193359 51.05664062 170.91193359 51.05664062 170.23193359 C52.00539062 169.92255859 52.95414063 169.61318359 53.93164062 169.29443359 C56.9174447 168.35798617 56.9174447 168.35798617 59.05664062 167.23193359 C59.05664062 166.57193359 59.05664062 165.91193359 59.05664062 165.23193359 C61.03664062 164.90193359 63.01664063 164.57193359 65.05664062 164.23193359 C65.05664062 163.57193359 65.05664062 162.91193359 65.05664062 162.23193359 C65.76433594 161.97283203 66.47203125 161.71373047 67.20117188 161.44677734 C70.26495359 160.14330797 72.93365497 158.57734741 75.74414062 156.79443359 C76.69675781 156.19759766 77.649375 155.60076172 78.63085938 154.98583984 C81.26686967 153.29495349 81.26686967 153.29495349 83.05664062 150.23193359 C83.35297162 148.29706824 83.35297162 148.29706824 83.30387878 146.16416931 C83.30807327 145.33834854 83.31226776 144.51252777 83.31658936 143.66168213 C83.31096985 142.75923767 83.30535034 141.85679321 83.29956055 140.92700195 C83.30240807 139.49738884 83.30240807 139.49738884 83.30531311 138.03889465 C83.30902308 134.88310567 83.29831404 131.72754593 83.28710938 128.57177734 C83.28591766 126.38367235 83.28546439 124.19556685 83.28572083 122.00746155 C83.28415561 117.42006227 83.2758625 112.83274099 83.26245117 108.24536133 C83.2454513 102.35475281 83.2416371 96.46422999 83.24239635 90.57359982 C83.24212491 86.05529456 83.23664793 81.53700817 83.22939491 77.01870918 C83.22620507 74.84610703 83.2242401 72.67350273 83.22350121 70.50089836 C83.22134155 67.46971847 83.2126057 64.43863088 83.2019043 61.4074707 C83.20235748 60.50300201 83.20281067 59.59853333 83.20327759 58.66665649 C83.3156799 54.31253147 83.3156799 54.31253147 82.05664062 50.23193359 C79.08664063 51.22193359 79.08664063 51.22193359 76.05664062 52.23193359 C76.05664062 83.58193359 76.05664062 114.93193359 76.05664062 147.23193359 C75.39664063 147.23193359 74.73664063 147.23193359 74.05664062 147.23193359 C74.06552307 146.08601242 74.07440552 144.94009125 74.08355713 143.75944519 C74.16455525 132.97350081 74.22456384 122.18761793 74.26388931 111.40143871 C74.28478648 105.85579465 74.31314317 100.31039561 74.35839844 94.76489258 C74.40177994 89.41567379 74.42576168 84.06669104 74.4361496 78.71730995 C74.4435548 76.67388504 74.458015 74.63047341 74.47956085 72.58714867 C74.50849245 69.73041995 74.51260092 66.87467331 74.51074219 64.01782227 C74.53231384 62.74359909 74.53231384 62.74359909 74.55432129 61.44363403 C74.59391685 56.91145942 74.59391685 56.91145942 72.17645264 53.27607727 C71.47691467 52.93150986 70.77737671 52.58694244 70.05664062 52.23193359 C69.27417969 51.73951172 68.49171875 51.24708984 67.68554688 50.73974609 C64.82953584 49.10167736 61.93524254 47.58678007 58.99414062 46.10693359 C57.97191406 45.58873047 56.9496875 45.07052734 55.89648438 44.53662109 C53.57304487 43.46918121 51.55039617 42.72231238 49.05664062 42.23193359 C49.05664062 41.57193359 49.05664062 40.91193359 49.05664062 40.23193359 C48.53714844 39.97798828 48.01765625 39.72404297 47.48242188 39.46240234 C46.43634766 38.94613281 46.43634766 38.94613281 45.36914062 38.41943359 C44.68464844 38.08298828 44.00015625 37.74654297 43.29492188 37.39990234 C41.75825924 36.59804872 40.24794578 35.74423687 38.76367188 34.84912109 C34.73077765 32.43985961 30.56480326 30.29160892 26.40820312 28.10498047 C23.52976178 26.582285 20.76879603 25.0400372 18.05664062 23.23193359 C17.06664062 23.23193359 16.07664062 23.23193359 15.05664062 23.23193359 C14.82203125 22.60802734 14.58742188 21.98412109 14.34570312 21.34130859 C12.68840987 18.62937418 11.44248072 18.34217362 8.43164062 17.48193359 C7.614375 17.23958984 6.79710937 16.99724609 5.95507812 16.74755859 C5.32859375 16.57740234 4.70210938 16.40724609 4.05664062 16.23193359 C4.05664062 15.57193359 4.05664062 14.91193359 4.05664062 14.23193359 C3.00476563 13.75755859 1.95289063 13.28318359 0.86914062 12.79443359 C0.27746094 12.52759766 -0.31421875 12.26076172 -0.92382812 11.98583984 C-1.59027344 11.73705078 -2.25671875 11.48826172 -2.94335938 11.23193359 C-3.6884375 10.93931641 -4.43351562 10.64669922 -5.20117188 10.34521484 C-9.50949347 10.16723575 -12.16127949 12.48803389 -15.63085938 14.85693359 Z " fill="#ED7F70" transform="translate(128.943359375,23.76806640625)"/>
<path d="M0 0 C2.1540032 1.10683109 4.22825651 2.30141287 6.30664062 3.54443359 C7.08676514 3.99447754 7.86688965 4.44452148 8.6706543 4.90820312 C11.14050459 6.3363898 13.59830151 7.78404452 16.05664062 9.23193359 C17.60895813 10.13091556 19.16232761 11.02808373 20.71679688 11.92333984 C23.86886314 13.74007742 27.01704699 15.56325421 30.16210938 17.39208984 C35.15824946 20.29439941 40.166871 23.17444965 45.18164062 26.04443359 C46.03274414 26.53290771 46.88384766 27.02138184 47.76074219 27.5246582 C52.74762064 30.37686898 57.76067004 33.17365166 62.80273438 35.92724609 C63.93630371 36.55010498 65.06987305 37.17296387 66.23779297 37.81469727 C68.44801513 39.02704801 70.66302294 40.23072529 72.88330078 41.42456055 C73.89054199 41.97845459 74.8977832 42.53234863 75.93554688 43.10302734 C77.2746814 43.82897095 77.2746814 43.82897095 78.64086914 44.56958008 C81.99715334 46.8791242 84.64585631 49.06923438 85.44071102 53.25398922 C85.61067676 55.77883002 85.65103858 58.2774815 85.65014648 60.80810547 C85.66530304 61.76640762 85.68045959 62.72470978 85.69607544 63.71205139 C85.74080893 66.87503681 85.75689206 70.03742626 85.77148438 73.20068359 C85.79408908 75.40117732 85.81799766 77.601658 85.84315491 79.80212402 C85.89148497 84.41202019 85.92599755 89.02175276 85.95043945 93.63183594 C85.98258943 99.54041205 86.04588539 105.44815285 86.11913204 111.35634613 C86.17255395 115.89956624 86.21103838 120.44281657 86.24484444 124.98622131 C86.26255477 127.1647579 86.28454782 129.34326402 86.31089592 131.52171326 C86.34516669 134.56651775 86.3597126 137.61079185 86.36889648 140.65576172 C86.38274887 141.55565323 86.39660126 142.45554474 86.41087341 143.38270569 C86.40232143 148.16023213 86.19422706 151.36936135 83.05664062 155.23193359 C80.56738281 157.03369141 80.56738281 157.03369141 77.60351562 158.68505859 C76.51772217 159.29913574 75.43192871 159.91321289 74.31323242 160.54589844 C73.1443965 161.19129422 71.97553194 161.83663815 70.80664062 162.48193359 C69.60376906 163.15840216 68.40170533 163.83630914 67.20043945 164.515625 C64.85024924 165.84416782 62.4976296 167.16794118 60.14306641 168.48876953 C56.63672539 170.46909502 53.18507362 172.51530567 49.74414062 174.60693359 C42.36644363 179.06925033 34.93183732 183.43319857 27.49414062 187.79443359 C26.88452484 188.15228943 26.27490906 188.51014526 25.64682007 188.87884521 C22.65592086 190.63422738 19.6619952 192.38390567 16.66162109 194.12304688 C14.18168269 195.56342837 11.72802609 197.04009745 9.28369141 198.54003906 C8.05310513 199.2798604 6.8224751 200.01960897 5.59179688 200.75927734 C4.50390869 201.42564209 3.41602051 202.09200684 2.29516602 202.77856445 C-1.48068857 204.47307349 -3.84436181 204.68854483 -7.94335938 204.23193359 C-10.69970703 203.13720703 -10.69970703 203.13720703 -13.35742188 201.59130859 C-14.35483398 201.02138184 -15.35224609 200.45145508 -16.37988281 199.86425781 C-17.43208008 199.24309082 -18.48427734 198.62192383 -19.56835938 197.98193359 C-21.22399902 197.02891357 -21.22399902 197.02891357 -22.91308594 196.05664062 C-25.1789997 194.75108612 -27.4413831 193.43938518 -29.70019531 192.12158203 C-33.4960561 189.90990163 -37.31200572 187.73523001 -41.13134766 185.56445312 C-43.69686757 184.10493779 -46.25819332 182.63831727 -48.81835938 181.16943359 C-52.31508599 179.16364256 -55.81521651 177.1639976 -59.31835938 175.16943359 C-63.69313801 172.67849305 -68.06263954 170.17853191 -72.42871094 167.67236328 C-74.10598369 166.7115954 -75.78502758 165.75391297 -77.46582031 164.79931641 C-79.83797034 163.45143994 -82.20375203 162.09298728 -84.56835938 160.73193359 C-85.2731543 160.33474121 -85.97794922 159.93754883 -86.70410156 159.52832031 C-92.98775476 155.88392632 -92.98775476 155.88392632 -94.94335938 152.23193359 C-95.39949289 149.0187634 -95.37358084 145.82671956 -95.36328125 142.58569336 C-95.37175079 141.60803009 -95.38022034 140.63036682 -95.38894653 139.62307739 C-95.41235512 136.3896994 -95.41333777 133.15679618 -95.41210938 129.92333984 C-95.41920849 127.67658802 -95.42690711 125.42983802 -95.43518066 123.18309021 C-95.44863428 118.47300172 -95.45019018 113.76308086 -95.44433594 109.05297852 C-95.43843842 103.01554462 -95.46903026 96.97891447 -95.50945282 90.94163609 C-95.53529514 86.30136273 -95.53821037 81.66128381 -95.53456116 77.02094841 C-95.53625557 74.79498207 -95.54592886 72.56900704 -95.56370544 70.34311104 C-95.58582644 67.23071532 -95.57622741 64.11995819 -95.55859375 61.00756836 C-95.57185699 60.08740433 -95.58512024 59.1672403 -95.5987854 58.2191925 C-95.54007334 53.76203449 -95.42863617 51.85112314 -92.60144043 48.24375916 C-89.58001354 45.95692752 -86.46932311 44.06505141 -83.13085938 42.29443359 C-81.70136445 41.51260463 -80.27305514 40.72860546 -78.84570312 39.94287109 C-78.06565918 39.51458008 -77.28561523 39.08628906 -76.48193359 38.64501953 C-71.67951254 35.97177342 -66.93856987 33.19257421 -62.19335938 30.41943359 C-61.16871582 29.82106689 -60.14407227 29.2227002 -59.08837891 28.60620117 C-51.71701645 24.29163934 -44.38248011 19.91834618 -37.06542969 15.51245117 C-31.53941422 12.18548399 -26.00011648 8.88231887 -20.44335938 5.60693359 C-19.74283447 5.19282227 -19.04230957 4.77871094 -18.32055664 4.35205078 C-16.53430146 3.30149466 -14.73930429 2.26583766 -12.94335938 1.23193359 C-12.27304688 0.81169922 -11.60273437 0.39146484 -10.91210938 -0.04150391 C-7.19244653 -1.41423662 -3.71376314 -1.46777624 0 0 Z M-12.13085938 2.91943359 C-16.58528206 6.02513583 -21.17026086 8.65364448 -25.94335938 11.23193359 C-27.63194933 12.16746897 -29.31948095 13.1049176 -31.00585938 14.04443359 C-32.97460938 15.13818359 -32.97460938 15.13818359 -34.94335938 16.23193359 C-34.94335938 16.89193359 -34.94335938 17.55193359 -34.94335938 18.23193359 C-36.49023438 18.57224609 -36.49023438 18.57224609 -38.06835938 18.91943359 C-41.52984175 19.89557162 -43.61302031 21.50766436 -46.28320312 23.94287109 C-48.84410036 25.93133248 -51.73395312 26.96428561 -54.71289062 28.19677734 C-57.51441325 29.4969586 -59.79243314 31.20661069 -62.24414062 33.06396484 C-64.96944724 34.93722157 -67.87046805 36.02687817 -70.94335938 37.23193359 C-71.93335938 37.72693359 -71.93335938 37.72693359 -72.94335938 38.23193359 C-72.94335938 38.89193359 -72.94335938 39.55193359 -72.94335938 40.23193359 C-73.53503906 40.40208984 -74.12671875 40.57224609 -74.73632812 40.74755859 C-79.63447568 42.24976372 -83.06844824 43.77593177 -86.94335938 47.23193359 C-87.96602402 47.73486435 -88.98868866 48.2377951 -90.04234314 48.75596619 C-93.18943439 51.44195438 -93.37397246 51.68764684 -93.68507385 55.52711487 C-93.71160249 57.32118969 -93.7048034 59.11593888 -93.67211914 60.90991211 C-93.67781418 61.89078796 -93.68350922 62.87166382 -93.68937683 63.88226318 C-93.70049516 67.12585302 -93.66840374 70.36742908 -93.63476562 73.61083984 C-93.63118964 75.86237857 -93.62983086 78.11392182 -93.63059998 80.36546326 C-93.62590644 85.08417783 -93.60104634 89.80220923 -93.56079102 94.52075195 C-93.50979124 100.57618615 -93.49834882 106.63087007 -93.50062656 112.68649387 C-93.49981174 117.33529351 -93.48337332 121.98392836 -93.46162224 126.63267326 C-93.45206091 128.86584157 -93.44615971 131.09902859 -93.44394112 133.33221626 C-93.43745294 136.44958595 -93.41122844 139.56615196 -93.37915039 142.68334961 C-93.38050995 143.61070419 -93.38186951 144.53805878 -93.38327026 145.49351501 C-93.37047531 146.34168793 -93.35768036 147.18986084 -93.34449768 148.06373596 C-93.33947015 148.80058404 -93.33444262 149.53743212 -93.32926273 150.29660892 C-92.83400292 152.78036167 -91.92328555 153.69805661 -89.94335938 155.23193359 C-89.28335938 155.23193359 -88.62335938 155.23193359 -87.94335938 155.23193359 C-87.94335938 155.89193359 -87.94335938 156.55193359 -87.94335938 157.23193359 C-87.193125 157.59544922 -86.44289063 157.95896484 -85.66992188 158.33349609 C-79.83853323 161.19778019 -74.18628789 164.19285793 -68.65039062 167.59130859 C-63.1514446 170.92400315 -57.53288481 174.05445884 -51.94335938 177.23193359 C-48.75488825 179.04950788 -45.56740969 180.86822329 -42.39648438 182.71630859 C-41.66945312 183.13396484 -40.94242188 183.55162109 -40.19335938 183.98193359 C-39.45601562 184.40990234 -38.71867187 184.83787109 -37.95898438 185.27880859 C-35.86295067 186.44567547 -35.86295067 186.44567547 -32.94335938 186.23193359 C-32.94335938 186.89193359 -32.94335938 187.55193359 -32.94335938 188.23193359 C-32.28851563 188.58384766 -31.63367188 188.93576172 -30.95898438 189.29833984 C-29.59 190.03890625 -29.59 190.03890625 -28.19335938 190.79443359 C-27.19046875 191.33583984 -26.18757813 191.87724609 -25.15429688 192.43505859 C-23.02706973 193.62547768 -20.92661202 194.8651484 -18.85742188 196.15380859 C-10.51999347 201.3774598 -10.51999347 201.3774598 -0.94335938 202.23193359 C2.5276092 200.95939503 2.5276092 200.95939503 5.05664062 199.23193359 C5.05664062 198.57193359 5.05664062 197.91193359 5.05664062 197.23193359 C6.01376953 196.95929688 6.01376953 196.95929688 6.99023438 196.68115234 C8.22966797 196.30410156 8.22966797 196.30410156 9.49414062 195.91943359 C10.31785156 195.67580078 11.1415625 195.43216797 11.99023438 195.18115234 C12.67214844 194.86791016 13.3540625 194.55466797 14.05664062 194.23193359 C14.38664062 193.24193359 14.71664062 192.25193359 15.05664062 191.23193359 C16.67775606 190.81803178 18.2995096 190.40651858 19.92382812 190.00537109 C23.43174189 188.7332705 26.17323938 186.43315276 29.16601562 184.24365234 C32.47182313 181.94298901 35.87224847 179.91254747 39.36914062 177.91943359 C39.95574463 177.58218262 40.54234863 177.24493164 41.14672852 176.89746094 C44.37136768 175.0759793 47.58261687 173.51595363 51.05664062 172.23193359 C51.05664062 171.57193359 51.05664062 170.91193359 51.05664062 170.23193359 C52.00539062 169.92255859 52.95414063 169.61318359 53.93164062 169.29443359 C56.9174447 168.35798617 56.9174447 168.35798617 59.05664062 167.23193359 C59.05664062 166.57193359 59.05664062 165.91193359 59.05664062 165.23193359 C61.03664062 164.90193359 63.01664063 164.57193359 65.05664062 164.23193359 C65.05664062 163.57193359 65.05664062 162.91193359 65.05664062 162.23193359 C65.76433594 161.97283203 66.47203125 161.71373047 67.20117188 161.44677734 C70.26495359 160.14330797 72.93365497 158.57734741 75.74414062 156.79443359 C76.69675781 156.19759766 77.649375 155.60076172 78.63085938 154.98583984 C81.26686967 153.29495349 81.26686967 153.29495349 83.05664062 150.23193359 C83.36112772 148.30642937 83.36112772 148.30642937 83.32406616 146.18435669 C83.33259613 145.3628714 83.3411261 144.54138611 83.34991455 143.69500732 C83.34900818 142.797276 83.34810181 141.89954468 83.34716797 140.97460938 C83.35388519 140.02635284 83.36060242 139.07809631 83.36752319 138.10110474 C83.38655392 134.95976553 83.39042998 131.8186394 83.39257812 128.67724609 C83.39900262 126.49632682 83.40573071 124.31540841 83.41275024 122.13449097 C83.42473578 117.5596924 83.42842976 112.98496942 83.42724609 108.41015625 C83.42704286 102.54656907 83.45434455 96.68346632 83.48879051 90.81999397 C83.51102283 86.31442029 83.51508475 81.80896384 83.51402664 77.30334091 C83.51638815 75.14157314 83.52524246 72.97980239 83.54069138 70.81808853 C83.56027639 67.79439586 83.55454242 64.77175632 83.54248047 61.74804688 C83.55371948 60.85436401 83.5649585 59.96068115 83.57653809 59.03991699 C83.53491705 54.93622254 83.40403211 52.7874035 81.18301392 49.23605347 C78.88334117 47.06859779 76.78722728 45.76198553 73.93164062 44.41943359 C72.62839844 43.79101562 72.62839844 43.79101562 71.29882812 43.14990234 C69.15196306 42.10563894 69.15196306 42.10563894 67.05664062 42.23193359 C67.05664062 41.57193359 67.05664062 40.91193359 67.05664062 40.23193359 C65.67992187 39.56097656 65.67992187 39.56097656 64.27539062 38.87646484 C58.36761595 35.97455561 52.56865769 33.08285245 47.04882812 29.48193359 C43.68585271 27.37183137 40.17455634 25.53464979 36.67773438 23.65771484 C34.43657155 22.43860243 32.24540149 21.16648819 30.05664062 19.85693359 C27.18563398 17.99379202 27.18563398 17.99379202 24.05664062 18.23193359 C23.56164062 16.74693359 23.56164062 16.74693359 23.05664062 15.23193359 C20.41271517 13.64333978 20.41271517 13.64333978 17.24414062 12.23193359 C13.52008262 10.49010865 10.29103854 8.76320153 7.05664062 6.23193359 C5.06518671 5.21502096 3.06476989 4.21550711 1.05664062 3.23193359 C0.19039063 2.67505859 -0.67585938 2.11818359 -1.56835938 1.54443359 C-5.90164681 -0.85027789 -8.42725314 0.24123382 -12.13085938 2.91943359 Z " fill="#5F3A35" transform="translate(128.943359375,23.76806640625)"/>
<path d="M0 0 C-0.4499769 2.09989219 -0.85129403 3.7693722 -2.02288818 5.58639526 C-3.51126565 9.26289864 -3.2775576 12.960738 -3.25878906 16.86767578 C-3.2622937 17.76237579 -3.26579834 18.65707581 -3.26940918 19.57888794 C-3.27820773 22.53444184 -3.27238492 25.4897562 -3.265625 28.4453125 C-3.26697195 30.49746751 -3.26891273 32.54962221 -3.27142334 34.60177612 C-3.27437186 38.90072673 -3.27008477 43.19959421 -3.26074219 47.49853516 C-3.24933348 53.0181087 -3.25591785 58.53748806 -3.26788712 64.05705452 C-3.27510078 68.29313633 -3.27282031 72.5291718 -3.26763153 76.76525497 C-3.26629441 78.80109556 -3.26794492 80.83694031 -3.27259064 82.87277603 C-3.27764933 85.7123359 -3.26995558 88.55157724 -3.25878906 91.39111328 C-3.26283752 92.23790649 -3.26688599 93.08469971 -3.27105713 93.95715332 C-3.43208867 98.45221306 -3.43208867 98.45221306 -1 102 C-1.99 103.32 -2.98 104.64 -4 106 C-10.875 105.125 -10.875 105.125 -12 104 C-12.11668511 100.8805818 -12.16803883 97.78302167 -12.17700195 94.66259766 C-12.18357315 93.68215988 -12.19014435 92.70172211 -12.19691467 91.6915741 C-12.21669913 88.43240289 -12.22832085 85.17327784 -12.23828125 81.9140625 C-12.24235678 80.80443523 -12.2464323 79.69480797 -12.25063133 78.55155563 C-12.2715127 72.68020563 -12.28580623 66.80887915 -12.29516602 60.9375 C-12.30624302 54.85846075 -12.34065215 48.7797863 -12.38033772 42.70087624 C-12.40642223 38.03926897 -12.41485051 33.37774974 -12.41844749 28.7160759 C-12.42333355 26.47449654 -12.43500438 24.23292162 -12.45348549 21.99141312 C-12.47770633 18.85937437 -12.47694322 15.72829416 -12.4699707 12.59619141 C-12.48278076 11.66412369 -12.49559082 10.73205597 -12.50878906 9.77174377 C-12.45772594 3.50260725 -12.45772594 3.50260725 -10.10441589 0.91854858 C-6.61716928 -0.60358658 -3.771291 -0.18856455 0 0 Z " fill="#F18071" transform="translate(48,72)"/>
<path d="M0 0 C3.0513679 0.95729189 5.58365288 2.21468062 8.30859375 3.87890625 C11.50139659 5.7839674 14.85180207 7.36141154 18.1875 9 C18.1875 9.66 18.1875 10.32 18.1875 11 C19.0125 11.226875 19.8375 11.45375 20.6875 11.6875 C24.91886618 13.27426232 28.43921013 15.50748237 32.1875 18 C31.8575 18.66 31.5275 19.32 31.1875 20 C30.1975 20.33 29.2075 20.66 28.1875 21 C27.8575 52.35 27.5275 83.7 27.1875 116 C26.5275 116 25.8675 116 25.1875 116 C25.19273682 114.85852005 25.19797363 113.7170401 25.20336914 112.54096985 C25.24751056 101.78479955 25.24971939 91.02932954 25.21084595 80.27312946 C25.19220854 74.74308396 25.18835872 69.21385086 25.21826172 63.68383789 C25.24657612 58.34712633 25.23610136 53.01177237 25.19869995 47.67513084 C25.19125191 45.63898184 25.19779466 43.60273216 25.21853638 41.56667519 C25.24521059 38.71390134 25.22219198 35.86553547 25.1875 33.01293945 C25.2166172 31.74950211 25.2166172 31.74950211 25.24632263 30.46054077 C25.18657434 28.05670664 25.05268566 26.24626622 24.1875 24 C21.76854899 21.75861656 19.1616328 20.38324237 16.1875 19 C15.10984375 18.42894531 14.0321875 17.85789062 12.921875 17.26953125 C11.44460937 16.54830078 11.44460937 16.54830078 9.9375 15.8125 C8.44476563 15.07966797 8.44476563 15.07966797 6.921875 14.33203125 C6.01953125 13.89246094 5.1171875 13.45289062 4.1875 13 C2.85328425 12.33510109 1.51956229 11.66920272 0.1875 11 C0.1875 10.34 0.1875 9.68 0.1875 9 C-0.410625 8.87625 -1.00875 8.7525 -1.625 8.625 C-3.8125 8 -3.8125 8 -6.8125 6 C-6.8125 4 -6.8125 4 -5.1875 1.8125 C-2.8125 0 -2.8125 0 0 0 Z " fill="#D9776A" transform="translate(177.8125,55)"/>
<path d="M0 0 C4.53413916 0.59252955 8.07224878 2.4817327 12 4.6875 C18.86783327 8.45546518 25.84076479 11.81275195 33 15 C33.3515625 17.26953125 33.3515625 17.26953125 33 20 C30.5859375 21.94921875 30.5859375 21.94921875 27.375 23.6875 C25.80878906 24.55955078 25.80878906 24.55955078 24.2109375 25.44921875 C21.17610332 26.91494767 18.20347617 27.97156161 15 29 C13.60938388 29.63344791 12.23173807 30.29691306 10.875 31 C10.23304688 31.33 9.59109375 31.66 8.9296875 32 C7.59326824 32.69255735 6.26557546 33.40211838 4.9453125 34.125 C3 35 3 35 0 35 C0 32.69 0 30.38 0 28 C1.7664657 26.9923048 3.53833823 25.99408286 5.3125 25 C6.29863281 24.443125 7.28476563 23.88625 8.30078125 23.3125 C11 22 11 22 14 22 C14 21.34 14 20.68 14 20 C17.465 19.505 17.465 19.505 21 19 C21 18.01 21 17.02 21 16 C20.44828125 15.87753906 19.8965625 15.75507812 19.328125 15.62890625 C16.70408745 14.92006389 14.2663047 13.96388744 11.75 12.9375 C10.85796875 12.57527344 9.9659375 12.21304688 9.046875 11.83984375 C8.37140625 11.56269531 7.6959375 11.28554687 7 11 C7 10.34 7 9.68 7 9 C6.030625 8.855625 5.06125 8.71125 4.0625 8.5625 C1 8 1 8 0 7 C-0.04092937 4.66702567 -0.04241723 2.33294775 0 0 Z " fill="#F68374" transform="translate(149,110)"/>
<path d="M0 0 C2.97 0 5.94 0 9 0 C9 0.99 9 1.98 9 3 C8.34 3 7.68 3 7 3 C6.9175 3.825 6.835 4.65 6.75 5.5 C6.12478469 8.41767147 5.54546343 10.07948424 4.1875 12.625 C2.38301075 16.01900324 1.15767497 19.3972919 0 23.0625 C-1.29779073 27.12316552 -2.73775725 30.49526152 -4.99609375 34.08203125 C-6.83653761 37.59820998 -7.83869081 41.43922807 -8.97265625 45.23046875 C-10.00811669 48.0218811 -10.90278685 49.88780676 -13 52 C-15.76142303 52.52799676 -18.16365545 52.18598981 -21 52 C-20.67 51.01 -20.34 50.02 -20 49 C-19.34 49 -18.68 49 -18 49 C-17.87625 47.576875 -17.87625 47.576875 -17.75 46.125 C-17.16578351 41.98540884 -15.66374088 38.40622377 -14.05078125 34.5703125 C-12.74056893 31.36540652 -11.66696963 28.10895525 -10.61328125 24.8125 C-10 23 -10 23 -9 21 C-8.34 21 -7.68 21 -7 21 C-6.896875 20.195625 -6.79375 19.39125 -6.6875 18.5625 C-5.84899627 14.21752614 -4.47178341 10.16542473 -3 6 C-2.34 6 -1.68 6 -1 6 C-0.67 4.02 -0.34 2.04 0 0 Z " fill="#EA7E71" transform="translate(129,101)"/>
<path d="M0 0 C0.66 0 1.32 0 2 0 C2 2.31 2 4.62 2 7 C1.46632812 7.23074219 0.93265625 7.46148437 0.3828125 7.69921875 C-4.81998866 9.97656943 -9.89364273 12.4283089 -14.93359375 15.046875 C-17 16 -17 16 -19 16 C-19 16.99 -19 17.98 -19 19 C-17.68 19 -16.36 19 -15 19 C-15 19.66 -15 20.32 -15 21 C-13.02 21.33 -11.04 21.66 -9 22 C-9 22.66 -9 23.32 -9 24 C-8.28972656 24.20496094 -7.57945313 24.40992188 -6.84765625 24.62109375 C-5.92855469 24.89050781 -5.00945312 25.15992188 -4.0625 25.4375 C-3.14597656 25.70433594 -2.22945312 25.97117188 -1.28515625 26.24609375 C1 27 1 27 2 28 C2.04092937 30.33297433 2.04241723 32.66705225 2 35 C-2.84385712 34.44222251 -6.43669391 32.99448054 -10.75 30.75 C-11.35690674 30.43788574 -11.96381348 30.12577148 -12.58911133 29.80419922 C-13.81508068 29.17368223 -15.0394774 28.54009718 -16.26220703 27.90332031 C-18.72654363 26.62233613 -21.20554623 25.37144374 -23.6875 24.125 C-24.45449219 23.73570312 -25.22148438 23.34640625 -26.01171875 22.9453125 C-28.12788985 21.88972808 -28.12788985 21.88972808 -31 21 C-31 19.02 -31 17.04 -31 15 C-30.48050781 14.74605469 -29.96101563 14.49210937 -29.42578125 14.23046875 C-26.3254307 12.7003512 -23.32902466 11.21667477 -20.4375 9.3125 C-17.33300452 7.64084859 -14.4826839 7.3414396 -11 7 C-11 6.34 -11 5.68 -11 5 C-10.28972656 4.72285156 -9.57945313 4.44570312 -8.84765625 4.16015625 C-7.46900391 3.61681641 -7.46900391 3.61681641 -6.0625 3.0625 C-5.14597656 2.70285156 -4.22945312 2.34320313 -3.28515625 1.97265625 C-1.07581467 1.2003782 -1.07581467 1.2003782 0 0 Z " fill="#E07A6D" transform="translate(95,110)"/>
<path d="M0 0 C0.33 0 0.66 0 1 0 C1.33927632 12.93390494 1.62958874 25.8678943 1.85746098 38.80426979 C1.96481165 44.81128386 2.08899306 50.81696427 2.25170898 56.82275391 C2.40812914 62.61906674 2.52024509 68.41470206 2.60171318 74.21253586 C2.64056664 76.42403954 2.69536767 78.63532248 2.76637459 80.84602737 C2.86317361 83.94466179 2.90313348 87.03923926 2.92993164 90.13916016 C2.97163986 91.05266235 3.01334808 91.96616455 3.05632019 92.90734863 C3.04397434 95.5577483 2.92960659 97.51409005 2 100 C-0.71369473 102.60164463 -3.67359986 104.2881457 -7 106 C-8.07427246 106.65597168 -9.14854492 107.31194336 -10.25537109 107.98779297 C-11.25133301 108.56674316 -12.24729492 109.14569336 -13.2734375 109.7421875 C-13.83101746 110.06755493 -14.38859741 110.39292236 -14.96307373 110.72814941 C-16.15113953 111.42109551 -17.33991311 112.11282941 -18.52935791 112.80340576 C-21.73637577 114.66542543 -24.93811268 116.53649558 -28.140625 118.40625 C-28.79519684 118.78808441 -29.44976868 119.16991882 -30.12417603 119.56332397 C-36.81119876 123.466828 -43.46888562 127.41910197 -50.125 131.375 C-83.41311214 151.14049792 -83.41311214 151.14049792 -91 151 C-90.67 150.01 -90.34 149.02 -90 148 C-89.13375 148.04125 -88.2675 148.0825 -87.375 148.125 C-83.87641532 147.99542279 -81.25448403 147.23980344 -78 146 C-78 145.34 -78 144.68 -78 144 C-75.66492857 142.37842262 -73.6553381 141.1541972 -70.875 140.5 C-68.90131104 140.14139092 -68.90131104 140.14139092 -67.5625 138.5625 C-66 137 -66 137 -63.6796875 136.09765625 C-60.93386571 134.97291 -58.9357727 133.64364343 -56.5625 131.875 C-52.38828101 128.89162427 -48.12427807 126.19246379 -43.6875 123.625 C-43.10105713 123.27937012 -42.51461426 122.93374023 -41.91040039 122.57763672 C-38.63064056 120.70683064 -35.75175251 119.49272547 -32 119 C-32 118.34 -32 117.68 -32 117 C-26.25 114 -26.25 114 -24 114 C-24 113.34 -24 112.68 -24 112 C-22.02 111.67 -20.04 111.34 -18 111 C-18 110.34 -18 109.68 -18 109 C-15.93964679 107.62444627 -13.89280434 106.35929201 -11.75 105.125 C-5.7687371 101.7816888 -5.7687371 101.7816888 -1 97 C-0.39311201 93.88566806 -0.43626603 90.80652415 -0.45410156 87.64160156 C-0.43859505 86.22158089 -0.43859505 86.22158089 -0.42277527 84.77287292 C-0.39328898 81.64528452 -0.39184684 78.51834163 -0.390625 75.390625 C-0.37564732 73.22156536 -0.35892105 71.05251714 -0.34051514 68.88348389 C-0.29678334 63.17559289 -0.2768295 57.46785575 -0.26177979 51.75982666 C-0.2422298 45.93484375 -0.2002574 40.11002752 -0.16015625 34.28515625 C-0.08479089 22.85682217 -0.03453764 11.42852527 0 0 Z " fill="#603933" transform="translate(212,77)"/>
<path d="M0 0 C0.33 0 0.66 0 1 0 C1.00586624 1.21664841 1.01173248 2.43329681 1.01777649 3.68681335 C1.0749747 15.14926329 1.14772128 26.61152299 1.23571491 38.07377911 C1.28045367 43.96673403 1.31970222 49.85961925 1.34643555 55.75268555 C1.37243331 61.43919381 1.41281108 67.12543437 1.46318626 72.81177711 C1.47987879 74.98186731 1.49137818 77.15200384 1.49761391 79.32214928 C1.50722887 82.36047852 1.53525761 85.39811915 1.56762695 88.4362793 C1.56619186 89.33467529 1.56475677 90.23307129 1.5632782 91.15869141 C1.63487136 95.90635307 1.87907907 99.16272006 5 103 C5.66 103.33 6.32 103.66 7 104 C7 104.66 7 105.32 7 106 C7.78697266 106.13341797 7.78697266 106.13341797 8.58984375 106.26953125 C11.86066503 107.26084985 14.63966252 108.95832371 17.5625 110.6875 C18.81974207 111.42025045 20.07756112 112.15201175 21.3359375 112.8828125 C21.95694336 113.24407227 22.57794922 113.60533203 23.21777344 113.97753906 C25.68061406 115.39046735 28.18211691 116.72677702 30.6875 118.0625 C34.33632805 120.02766212 37.79597626 122.14838264 41.25 124.4375 C47.81494868 128.70614588 54.86069087 131.83018528 62 135 C62 135.66 62 136.32 62 137 C63.2375 137.3403125 63.2375 137.3403125 64.5 137.6875 C67.95716775 138.98393791 70.62733509 140.56037816 73.69921875 142.55859375 C78.00731077 145.25755123 82.51901733 147.60300375 87 150 C87 150.66 87 151.32 87 152 C82.05312617 150.2247106 77.58032593 147.66942812 73 145.125 C72.12206787 144.6395874 71.24413574 144.1541748 70.33959961 143.65405273 C61.39809434 138.69466506 52.52408873 133.61869652 43.65869141 128.52490234 C40.08202728 126.47349333 36.49852033 124.43418606 32.9152832 122.39428711 C29.44476676 120.41599419 25.97921279 118.42912426 22.51464844 116.44042969 C20.83737569 115.4796618 19.15833179 114.52197938 17.47753906 113.56738281 C15.10538903 112.21950634 12.73960735 110.86105369 10.375 109.5 C9.67020508 109.10280762 8.96541016 108.70561523 8.23925781 108.29638672 C1.93933677 104.6425577 1.93933677 104.6425577 0 101 C-0.43345688 97.75796471 -0.37845517 94.54065504 -0.34057617 91.27441406 C-0.34101425 90.28871933 -0.34145233 89.3030246 -0.34190369 88.28746033 C-0.33981397 85.02998028 -0.3164738 81.77301513 -0.29296875 78.515625 C-0.28737346 76.25689983 -0.28310305 73.99817103 -0.28010559 71.73944092 C-0.2686516 65.79471788 -0.23917941 59.85021476 -0.20599365 53.90557861 C-0.17530486 47.83942642 -0.16160278 41.7732387 -0.14648438 35.70703125 C-0.11431045 23.80459088 -0.0631072 11.90231373 0 0 Z " fill="#311E1B" transform="translate(34,75)"/>
<path d="M0 0 C6.2068449 0.14106466 10.33165614 2.69123418 15.546875 5.91796875 C21.32937912 9.47390201 27.37700318 12.58604376 33.35009766 15.8059082 C36.28607429 17.39220648 39.21778202 18.98568155 42.14575195 20.58666992 C43.35067451 21.2429004 44.55775417 21.89518404 45.7668457 22.54370117 C47.54670932 23.49937268 49.31839669 24.4702225 51.08984375 25.44140625 C52.13003662 26.00545166 53.17022949 26.56949707 54.24194336 27.15063477 C57.39153661 29.26253783 58.98613904 30.76797854 61 34 C61.59144758 37.21768149 61.56398962 40.39090052 61.54589844 43.65551758 C61.55623611 44.6218512 61.56657379 45.58818481 61.57722473 46.58380127 C61.60667077 49.77088099 61.60815232 52.95732614 61.609375 56.14453125 C61.62435538 58.35700188 61.64108223 60.56946132 61.65948486 62.78190613 C61.70318621 68.59992993 61.7231638 74.41780286 61.73822021 80.23596191 C61.75778112 86.17497692 61.79975233 92.11382876 61.83984375 98.05273438 C61.91517618 109.70177263 61.96544942 121.35077441 62 133 C59.34649827 130.34649827 59.7565769 128.3875879 59.73213196 124.77787781 C59.73625595 123.90460342 59.74037994 123.03132904 59.74462891 122.1315918 C59.74100845 121.212742 59.737388 120.29389221 59.73365784 119.34719849 C59.72675251 117.34739362 59.72426052 115.34756986 59.72560501 113.34775352 C59.72656742 110.18302466 59.71366143 107.01863812 59.69662476 103.85395813 C59.65026804 94.85457026 59.62574606 85.85521596 59.61914062 76.85571289 C59.61412883 71.35491661 59.58989276 65.85447578 59.55381393 60.35379982 C59.54400546 58.25626572 59.54168967 56.15868278 59.54698563 54.06113243 C59.55404755 51.12589886 59.53679076 48.19172521 59.51416016 45.2565918 C59.52233261 44.38939011 59.53050507 43.52218842 59.53892517 42.62870789 C59.48382958 38.61329882 59.32051512 36.51562916 57.15634155 33.03401184 C54.55293261 30.57829484 51.98801108 29.20091822 48.75 27.6875 C47.67234375 27.17574219 46.5946875 26.66398437 45.484375 26.13671875 C44.66453125 25.76160156 43.8446875 25.38648437 43 25 C43 24.34 43 23.68 43 23 C42.29101562 22.90074219 41.58203125 22.80148438 40.8515625 22.69921875 C37.56676552 21.89376853 35.259252 20.57337083 32.375 18.8125 C28.45433272 16.45914104 24.52758475 14.16555644 20.5 12 C13.5402048 8.23685492 6.58589698 4.39059799 0 0 Z " fill="#3F2723" transform="translate(153,41)"/>
<path d="M0 0 C0.66 0.33 1.32 0.66 2 1 C0.6875 2.5 0.6875 2.5 -1 4 C-1.99 4 -2.98 4 -4 4 C-4 4.66 -4 5.32 -4 6 C-4.99 6 -5.98 6 -7 6 C-7 6.66 -7 7.32 -7 8 C-8.65 8.33 -10.3 8.66 -12 9 C-11.67 10.32 -11.34 11.64 -11 13 C-6.545 12.505 -6.545 12.505 -2 12 C-2 11.34 -2 10.68 -2 10 C-1.01 10 -0.02 10 1 10 C1 10.66 1 11.32 1 12 C-0.98 12.33 -2.96 12.66 -5 13 C-5 13.66 -5 14.32 -5 15 C-10.75 18 -10.75 18 -13 18 C-13 18.66 -13 19.32 -13 20 C-15.31 20.66 -17.62 21.32 -20 22 C-20 21.34 -20 20.68 -20 20 C-19.01 20 -18.02 20 -17 20 C-17 19.34 -17 18.68 -17 18 C-22.76577828 17.3993981 -25.48493427 18.53144755 -30.10546875 22.00390625 C-32.51999975 23.27340193 -33.46348706 22.75795891 -36 22 C-32.92607351 19.98524748 -29.83943704 17.99087089 -26.75 16 C-25.87730469 15.42765625 -25.00460938 14.8553125 -24.10546875 14.265625 C-22.83896484 13.45351562 -22.83896484 13.45351562 -21.546875 12.625 C-20.77182617 12.12226563 -19.99677734 11.61953125 -19.19824219 11.1015625 C-17 10 -17 10 -13 10 C-13 9.34 -13 8.68 -13 8 C-11.35 7.67 -9.7 7.34 -8 7 C-7.67 6.01 -7.34 5.02 -7 4 C-4.9375 3.3125 -4.9375 3.3125 -3 3 C-3 2.34 -3 1.68 -3 1 C-2.01 0.67 -1.02 0.34 0 0 Z " fill="#E77D6F" transform="translate(193,176)"/>
<path d="M0 0 C1.0725 0.226875 2.145 0.45375 3.25 0.6875 C3.25 1.3475 3.25 2.0075 3.25 2.6875 C2.26 2.6875 1.27 2.6875 0.25 2.6875 C0.19328125 3.28433594 0.1365625 3.88117188 0.078125 4.49609375 C-1.12674419 7.68445042 -3.00082414 8.24640248 -6 9.75 C-8.87871437 11.21658827 -11.6903566 12.65034225 -14.43359375 14.359375 C-17.09727989 15.88661494 -18.72952566 15.9463978 -21.75 15.6875 C-21.75 16.3475 -21.75 17.0075 -21.75 17.6875 C-22.41 17.6875 -23.07 17.6875 -23.75 17.6875 C-23.42 15.7075 -23.09 13.7275 -22.75 11.6875 C-21.76 11.3575 -20.77 11.0275 -19.75 10.6875 C-19.75 9.6975 -19.75 8.7075 -19.75 7.6875 C-18.76 7.6875 -17.77 7.6875 -16.75 7.6875 C-16.75 7.0275 -16.75 6.3675 -16.75 5.6875 C-15.84507812 5.41486328 -15.84507812 5.41486328 -14.921875 5.13671875 C-9.95455233 3.65974549 -9.95455233 3.65974549 -5.625 0.9375 C-3.75 -0.3125 -3.75 -0.3125 0 0 Z " fill="#F98274" transform="translate(172.75,193.3125)"/>
<path d="M0 0 C2.31 0.33 4.62 0.66 7 1 C7 3.25 7 3.25 6 6 C2.52611069 8.43795371 -0.73822064 10 -5 10 C-5 10.99 -5 11.98 -5 13 C-2.64828869 12.40138258 -0.3140622 11.73075648 2 11 C2.33 10.34 2.66 9.68 3 9 C4.98 9 6.96 9 9 9 C5.43292836 12.14741616 2.50479709 13.58673032 -2 15 C-5.41363951 16.58466825 -8.7538784 18.31771289 -12.0546875 20.125 C-14 21 -14 21 -17 21 C-17 18.69 -17 16.38 -17 14 C-15.2335343 12.9923048 -13.46166177 11.99408286 -11.6875 11 C-10.70136719 10.443125 -9.71523437 9.88625 -8.69921875 9.3125 C-6 8 -6 8 -3 8 C-3 7.34 -3 6.68 -3 6 C0.465 5.505 0.465 5.505 4 5 C4 4.01 4 3.02 4 2 C2.68 1.67 1.36 1.34 0 1 C0 0.67 0 0.34 0 0 Z " fill="#F38374" transform="translate(166,124)"/>
<path d="M0 0 C0.66 0.33 1.32 0.66 2 1 C1.67 1.99 1.34 2.98 1 4 C3.475 4.495 3.475 4.495 6 5 C6 5.99 6 6.98 6 8 C0.84673352 12.67814262 -5.36584131 15.21207071 -12 17 C-11.34 15.02 -10.68 13.04 -10 11 C-11.98 11 -13.96 11 -16 11 C-11.950809 6.16709462 -8.03280791 4.6166348 -2 3 C-2 2.34 -2 1.68 -2 1 C-1.34 0.67 -0.68 0.34 0 0 Z " fill="#E47B6E" transform="translate(58,61)"/>
<path d="M0 0 C3.93042812 1.01649003 5.60553202 2.3051433 8.625 4.9375 C9.6975 5.47375 10.77 6.01 11.875 6.5625 C14.625 7.9375 14.625 7.9375 15.625 9.9375 C14.305 9.6075 12.985 9.2775 11.625 8.9375 C10.635 10.5875 9.645 12.2375 8.625 13.9375 C2.875 13.1875 2.875 13.1875 0.625 10.9375 C-2.47426819 11.25948966 -2.47426819 11.25948966 -5.375 11.9375 C-6.5 7.1875 -6.5 7.1875 -5.375 4.9375 C-2.9375 3.75 -2.9375 3.75 -0.375 2.9375 C0.285 3.2675 0.945 3.5975 1.625 3.9375 C1.625 3.2775 1.625 2.6175 1.625 1.9375 C-1.015 2.2675 -3.655 2.5975 -6.375 2.9375 C-4.40253059 0.03680969 -3.5914333 -0.06650802 0 0 Z " fill="#E1796C" transform="translate(124.375,24.0625)"/>
<path d="M0 0 C0.99 0.66 1.98 1.32 3 2 C2.67 4.31 2.34 6.62 2 9 C1.34 9 0.68 9 0 9 C-0.04898438 9.59167969 -0.09796875 10.18335938 -0.1484375 10.79296875 C-0.56456867 15.19104472 -1.04965595 18.96928897 -3 23 C-5.64 23 -8.28 23 -11 23 C-10.505 21.515 -10.505 21.515 -10 20 C-9.34 20 -8.68 20 -8 20 C-7.9175 19.05125 -7.835 18.1025 -7.75 17.125 C-6.86491581 10.92941065 -4.7895264 4.21478323 0 0 Z " fill="#EE8073" transform="translate(119,130)"/>
<path d="M0 0 C0.66 0 1.32 0 2 0 C2 2.31 2 4.62 2 7 C-0.22798846 7.99992511 -2.45811753 8.99344786 -4.6953125 9.97265625 C-6.33949148 10.70556993 -7.96030155 11.49186177 -9.5625 12.3125 C-13.23429391 13.34813418 -16.25542097 12.63467441 -20 12 C-20 11.34 -20 10.68 -20 10 C-17.03 9.01 -14.06 8.02 -11 7 C-11 6.34 -11 5.68 -11 5 C-10.28972656 4.72285156 -9.57945313 4.44570312 -8.84765625 4.16015625 C-7.46900391 3.61681641 -7.46900391 3.61681641 -6.0625 3.0625 C-5.14597656 2.70285156 -4.22945312 2.34320313 -3.28515625 1.97265625 C-1.07581467 1.2003782 -1.07581467 1.2003782 0 0 Z " fill="#E88074" transform="translate(95,110)"/>
<path d="M0 0 C2.25747535 1.17434064 4.44272642 2.42923691 6.62744141 3.73388672 C7.41038574 4.18554199 8.19333008 4.63719727 9 5.10253906 C11.32148794 6.44535585 13.63100679 7.80713157 15.93994141 9.17138672 C17.21898795 9.91382717 18.49885861 10.65485081 19.77978516 11.39404297 C22.50768355 12.973694 25.22758671 14.56524727 27.93994141 16.17138672 C26.35791016 16.89794922 26.35791016 16.89794922 23.93994141 17.17138672 C21.56871594 16.05516851 19.46740349 14.91602079 17.25244141 13.54638672 C16.00009459 12.79986107 14.74749032 12.05376717 13.49462891 11.30810547 C12.8871582 10.94120605 12.2796875 10.57430664 11.65380859 10.19628906 C8.7346568 8.45061966 5.74720106 6.83227989 2.76025391 5.20654297 C0.93994141 4.17138672 0.93994141 4.17138672 -1.74755859 2.29638672 C-5.04925723 0.69015495 -6.55279946 1.09223006 -10.06005859 2.17138672 C-12.42823213 3.44686955 -14.72849607 4.78446852 -17.00927734 6.21044922 C-19.06005859 7.17138672 -19.06005859 7.17138672 -22.06005859 6.17138672 C-20.45811788 5.18858257 -18.85342117 4.21026955 -17.24755859 3.23388672 C-16.35423828 2.68861328 -15.46091797 2.14333984 -14.54052734 1.58154297 C-9.85169565 -1.08407631 -5.16520965 -2.07759203 0 0 Z " fill="#442724" transform="translate(129.06005859375,23.82861328125)"/>
<path d="M0 0 C4.00458831 0.61609051 6.83019669 2.55060653 10 5 C10 5.99 10 6.98 10 8 C9.67 7.34 9.34 6.68 9 6 C8.01 6 7.02 6 6 6 C5.67 7.98 5.34 9.96 5 12 C6.65 12 8.3 12 10 12 C10.66 13.32 11.32 14.64 12 16 C8.8411726 14.81543972 5.78725295 13.46399962 2.75 12 C2.06421875 11.67 1.3784375 11.34 0.671875 11 C-1 10 -1 10 -2 8 C-0.68 7.34 0.64 6.68 2 6 C1.34 4.02 0.68 2.04 0 0 Z " fill="#E07A6C" transform="translate(106,207)"/>
<path d="M0 0 C2.475 0.495 2.475 0.495 5 1 C5 2.32 5 3.64 5 5 C3.68 5 2.36 5 1 5 C1 5.99 1 6.98 1 8 C-0.485 8.12375 -0.485 8.12375 -2 8.25 C-5.91238796 8.77590144 -8.89757735 10.31885547 -12.30078125 12.2578125 C-12.86152344 12.50273437 -13.42226562 12.74765625 -14 13 C-14.66 12.67 -15.32 12.34 -16 12 C-13.15028266 7.72542399 -9.33120639 6.61440295 -4.75 4.5 C-1.76204931 3.14664403 -1.76204931 3.14664403 0 0 Z " fill="#FA8270" transform="translate(175,125)"/>
<path d="M0 0 C0.33 0.66 0.66 1.32 1 2 C0.38125 2.0825 -0.2375 2.165 -0.875 2.25 C-3.67505419 3.23825442 -3.74113932 4.40359985 -5 7 C-7.45060143 8.66290812 -9.15454207 9.01854505 -12.125 9.375 C-13.07375 9.58125 -14.0225 9.7875 -15 10 C-15.26554687 10.61488281 -15.53109375 11.22976562 -15.8046875 11.86328125 C-17.54676551 14.97738802 -19.73501387 15.51356922 -23 16.8125 C-24.0725 17.25207031 -25.145 17.69164063 -26.25 18.14453125 C-29 19 -29 19 -31 18 C-29.9790625 17.41605469 -29.9790625 17.41605469 -28.9375 16.8203125 C-21.96906187 12.79863411 -15.12694236 8.61884334 -8.34570312 4.28955078 C-5.58580215 2.54174999 -3.11224172 1.03741391 0 0 Z " fill="#5B3532" transform="translate(105,44)"/>
<path d="M0 0 C0.33 0 0.66 0 1 0 C1 18.15 1 36.3 1 55 C2.65 55 4.3 55 6 55 C6.33 56.32 6.66 57.64 7 59 C3.535 57.515 3.535 57.515 0 56 C0 37.52 0 19.04 0 0 Z " fill="#583531" transform="translate(45,117)"/>
<path d="M0 0 C0.61875 0.804375 1.2375 1.60875 1.875 2.4375 C3.74164041 5.03874519 3.74164041 5.03874519 6 6 C6 6.66 6 7.32 6 8 C6.515625 8.08378906 7.03125 8.16757813 7.5625 8.25390625 C10.99360993 9.30413381 13.92947659 11.12280781 17 12.9375 C22.41625668 16.1228787 22.41625668 16.1228787 28 19 C25 20 25 20 22.6875 19.05957031 C21.3571875 18.32625488 21.3571875 18.32625488 20 17.578125 C19.030625 17.04703125 18.06125 16.5159375 17.0625 15.96875 C16.051875 15.4015625 15.04125 14.834375 14 14.25 C12.989375 13.69828125 11.97875 13.1465625 10.9375 12.578125 C2.23404441 7.76344744 2.23404441 7.76344744 0 5 C-0.1875 2.3125 -0.1875 2.3125 0 0 Z " fill="#472B25" transform="translate(35,173)"/>
<path d="M0 0 C0.66 0.33 1.32 0.66 2 1 C0.87926138 1.83905565 -0.24674547 2.67107831 -1.375 3.5 C-2.31472656 4.19609375 -2.31472656 4.19609375 -3.2734375 4.90625 C-5 6 -5 6 -7 6 C-7 6.66 -7 7.32 -7 8 C-7.65226562 8.31453125 -8.30453125 8.6290625 -8.9765625 8.953125 C-14.82467698 11.790769 -14.82467698 11.790769 -20.3125 15.25 C-22.98708753 16.99159188 -24.85985834 17.63057157 -28 18 C-24.58925765 14.12335727 -20.72942089 11.97449586 -16.25 9.5625 C-14.81418627 8.77641384 -13.37927917 7.98866926 -11.9453125 7.19921875 C-11.26243164 6.8232959 -10.57955078 6.44737305 -9.87597656 6.06005859 C-7.56485238 4.75411102 -5.34148007 3.33493244 -3.125 1.875 C-2.09375 1.25625 -1.0625 0.6375 0 0 Z " fill="#3B231D" transform="translate(63,56)"/>
<path d="M0 0 C1.4386494 0.06032073 2.87611902 0.14920133 4.3125 0.25 C5.51326172 0.31960937 5.51326172 0.31960937 6.73828125 0.390625 C9.6938393 1.18694116 10.21315633 2.58845006 12 5 C14.37858833 6.00903197 14.37858833 6.00903197 17 6.5625 C20.51749977 7.40523432 22.81354583 8.00875977 25 11 C25.1875 14.6875 25.1875 14.6875 25 18 C24.34 17.67 23.68 17.34 23 17 C23 15.35 23 13.7 23 12 C22.26136719 11.70867187 21.52273437 11.41734375 20.76171875 11.1171875 C13.54637385 8.20171142 6.75119354 4.86731756 0 1 C0 0.67 0 0.34 0 0 Z " fill="#5B3632" transform="translate(158,113)"/>
<path d="M0 0 C0.33 0.66 0.66 1.32 1 2 C0.06427559 4.38609725 -0.92191995 6.67978424 -2 9 C-3.79661743 13.00783889 -5.34025662 16.64569372 -6 21 C-6.66 21 -7.32 21 -8 21 C-8 21.66 -8 22.32 -8 23 C-5.36 23 -2.72 23 0 23 C0 23.66 0 24.32 0 25 C-3.63 25 -7.26 25 -11 25 C-11 24.01 -11 23.02 -11 22 C-10.34 22 -9.68 22 -9 22 C-9 20.35 -9 18.7 -9 17 C-8.34 17 -7.68 17 -7 17 C-4.83568705 10.8901244 -4.83568705 10.8901244 -3.5 4.5625 C-3.335 3.716875 -3.17 2.87125 -3 2 C-2.01 1.34 -1.02 0.68 0 0 Z " fill="#6B423B" transform="translate(117,129)"/>
<path d="M0 0 C4.55315948 0.61811534 8.28459767 2.46765893 12.3125 4.5625 C13.28026367 5.0565332 13.28026367 5.0565332 14.26757812 5.56054688 C15.84785228 6.36824255 17.42432105 7.18337613 19 8 C15.90279155 8.87840996 14.09354597 8.99435406 11 8 C11 7.34 11 6.68 11 6 C7.41672247 4.99782936 7.41672247 4.99782936 4 6 C3.67 5.34 3.34 4.68 3 4 C3 4.99 3 5.98 3 7 C3.66 7 4.32 7 5 7 C4.67 7.66 4.34 8.32 4 9 C2.68 8.34 1.36 7.68 0 7 C0 4.69 0 2.38 0 0 Z " fill="#E27E72" transform="translate(149,110)"/>
<path d="M0 0 C-4.03031571 3.72029143 -7.69027473 5.86385938 -12.7421875 7.953125 C-16.18139199 9.54777345 -18.99631299 11.69930356 -22 14 C-22.66 13.67 -23.32 13.34 -24 13 C-20.08548763 8.68636087 -15.95322128 5.9369841 -10.875 3.125 C-9.80185547 2.50238281 -9.80185547 2.50238281 -8.70703125 1.8671875 C-3.37246842 -1.12415614 -3.37246842 -1.12415614 0 0 Z " fill="#452A27" transform="translate(87,45)"/>
<path d="M0 0 C3.2227565 1.20853369 6.36162389 2.52215391 9.5 3.9375 C6.86221242 4.85058032 5.567031 4.95464746 2.8125 4.25 C-1.40579786 3.85204737 -3.64906169 5.18021867 -7.375 7.01171875 C-9.85784287 8.09339846 -11.81688633 8.28370822 -14.5 7.9375 C-4.99783174 -0.12494579 -4.99783174 -0.12494579 0 0 Z " fill="#5A3632" transform="translate(123.5,34.0625)"/>
<path d="M0 0 C2.31 0.33 4.62 0.66 7 1 C7 3.25 7 3.25 6 6 C2.52611069 8.43795371 -0.73822064 10 -5 10 C-5.33 10.66 -5.66 11.32 -6 12 C-7.65 12 -9.3 12 -11 12 C-9.72485508 9.44971017 -8.59658703 9.06918289 -6 8 C-5.01 8 -4.02 8 -3 8 C-3 7.34 -3 6.68 -3 6 C0.465 5.505 0.465 5.505 4 5 C4 4.01 4 3.02 4 2 C2.68 1.67 1.36 1.34 0 1 C0 0.67 0 0.34 0 0 Z " fill="#BF6A60" transform="translate(166,124)"/>
<path d="M0 0 C1.65 0 3.3 0 5 0 C4.67 1.65 4.34 3.3 4 5 C3.01 5.33 2.02 5.66 1 6 C0.26676204 8.01508358 0.26676204 8.01508358 0 10 C-1.65 10.33 -3.3 10.66 -5 11 C-4.6875 8.625 -4.6875 8.625 -4 6 C-3.01 5.34 -2.02 4.68 -1 4 C-0.27617533 1.94074861 -0.27617533 1.94074861 0 0 Z " fill="#F78475" transform="translate(131,103)"/>
<path d="M0 0 C0 0.66 0 1.32 0 2 C-0.99 2 -1.98 2 -3 2 C-3 2.99 -3 3.98 -3 5 C-5.91305305 7.80901544 -8.87776008 8.71944002 -12.75 9.6875 C-14.22726563 10.06455078 -14.22726563 10.06455078 -15.734375 10.44921875 C-16.48203125 10.63097656 -17.2296875 10.81273437 -18 11 C-18 10.34 -18 9.68 -18 9 C-16.89591797 8.40251953 -16.89591797 8.40251953 -15.76953125 7.79296875 C-14.79371094 7.26316406 -13.81789062 6.73335937 -12.8125 6.1875 C-11.84957031 5.66542969 -10.88664063 5.14335937 -9.89453125 4.60546875 C-7.99086293 3.54958794 -6.11141174 2.44859359 -4.26171875 1.30078125 C-2 0 -2 0 0 0 Z " fill="#BE6D61" transform="translate(156,199)"/>
<path d="M0 0 C0.66 0 1.32 0 2 0 C2 1.32 2 2.64 2 4 C2.928125 4.144375 3.85625 4.28875 4.8125 4.4375 C8 5 8 5 11 6 C11 6.99 11 7.98 11 9 C3.17847534 8.96591928 3.17847534 8.96591928 0.2890625 6.59765625 C-1.0625 4.9375 -1.0625 4.9375 -3 2 C-2.01 2 -1.02 2 0 2 C0 1.34 0 0.68 0 0 Z " fill="#F68173" transform="translate(78,130)"/>
<path d="M0 0 C2.97 0 5.94 0 9 0 C9 0.99 9 1.98 9 3 C6.69 2.67 4.38 2.34 2 2 C1.67 3.65 1.34 5.3 1 7 C0.01 7.33 -0.98 7.66 -2 8 C-2.33 9.65 -2.66 11.3 -3 13 C-3.93423645 9.98968256 -4.04449911 9.13349732 -3 6 C-2.34 6 -1.68 6 -1 6 C-0.67 4.02 -0.34 2.04 0 0 Z " fill="#B46861" transform="translate(129,101)"/>
<path d="M0 0 C2.31 0 4.62 0 7 0 C7 2.31 7 4.62 7 7 C4.03 6.505 4.03 6.505 1 6 C1 5.01 1 4.02 1 3 C0.34 2.67 -0.32 2.34 -1 2 C-0.67 1.34 -0.34 0.68 0 0 Z " fill="#E67F75" transform="translate(90,138)"/>
<path d="M0 0 C-2.07120871 5.1670047 -6.11150486 6.82187654 -11 9 C-14.5625 9.8125 -14.5625 9.8125 -17 10 C-14.07647233 6.81321628 -11.18387159 4.78276705 -7.375 2.75 C-6.41335937 2.22921875 -5.45171875 1.7084375 -4.4609375 1.171875 C-2 0 -2 0 0 0 Z " fill="#583530" transform="translate(177,197)"/>
<path d="M0 0 C-5.94 3.63 -11.88 7.26 -18 11 C-18 10.01 -18 9.02 -18 8 C-17.34 8 -16.68 8 -16 8 C-16 7.34 -16 6.68 -16 6 C-10.25 3 -10.25 3 -8 3 C-8 2.34 -8 1.68 -8 1 C-2.25 -1.125 -2.25 -1.125 0 0 Z " fill="#402621" transform="translate(196,188)"/>
<path d="M0 0 C7.27768201 0.16540186 13.19008933 3.8029352 19 8 C19.33 8.99 19.66 9.98 20 11 C16.03101997 9.53543172 12.5137749 7.65225783 8.875 5.5 C7.84117187 4.8915625 6.80734375 4.283125 5.7421875 3.65625 C3.79984404 2.48309669 1.88803686 1.25869124 0 0 Z " fill="#4F3028" transform="translate(153,41)"/>
<path d="M0 0 C0.66 0.33 1.32 0.66 2 1 C0.6875 2.5 0.6875 2.5 -1 4 C-1.99 4 -2.98 4 -4 4 C-4 4.66 -4 5.32 -4 6 C-4.99 6 -5.98 6 -7 6 C-7 6.66 -7 7.32 -7 8 C-8.65 8.33 -10.3 8.66 -12 9 C-12 9.66 -12 10.32 -12 11 C-14.64 11.66 -17.28 12.32 -20 13 C-18.75 11.5 -18.75 11.5 -17 10 C-15.68 10 -14.36 10 -13 10 C-13 9.34 -13 8.68 -13 8 C-11.35 7.67 -9.7 7.34 -8 7 C-7.67 6.01 -7.34 5.02 -7 4 C-4.9375 3.3125 -4.9375 3.3125 -3 3 C-3 2.34 -3 1.68 -3 1 C-2.01 0.67 -1.02 0.34 0 0 Z " fill="#C36F63" transform="translate(193,176)"/>
<path d="M0 0 C0 0.66 0 1.32 0 2 C-0.99 2 -1.98 2 -3 2 C-3.33 2.99 -3.66 3.98 -4 5 C-5.70703125 6.421875 -5.70703125 6.421875 -7.8125 7.75 C-8.49957031 8.19859375 -9.18664062 8.6471875 -9.89453125 9.109375 C-12.39934831 10.16892656 -13.49281235 9.92399724 -16 9 C-13.71180854 7.49445366 -11.41978831 5.99542957 -9.125 4.5 C-8.47402344 4.07074219 -7.82304687 3.64148438 -7.15234375 3.19921875 C-2.2265625 0 -2.2265625 0 0 0 Z " fill="#C97268" transform="translate(173,189)"/>
<path d="M0 0 C0.66 0.66 1.32 1.32 2 2 C1.01 2 0.02 2 -1 2 C-1 2.66 -1 3.32 -1 4 C-1.99 4 -2.98 4 -4 4 C-4 4.66 -4 5.32 -4 6 C-6.31 5.67 -8.62 5.34 -11 5 C-11 4.34 -11 3.68 -11 3 C-7.46165096 0.87699058 -4.09176955 0.30309404 0 0 Z " fill="#F78572" transform="translate(86,117)"/>
<path d="M0 0 C2.22265625 1.515625 2.22265625 1.515625 4 3 C3.40574219 2.85820312 2.81148437 2.71640625 2.19921875 2.5703125 C-4.87649073 1.31583213 -8.67381359 2.89621365 -14.65234375 6.75 C-15.42707031 7.1625 -16.20179687 7.575 -17 8 C-17.99 7.67 -18.98 7.34 -20 7 C-18.39805929 6.01719585 -16.79336258 5.03888283 -15.1875 4.0625 C-14.29417969 3.51722656 -13.40085937 2.97195312 -12.48046875 2.41015625 C-8.21116551 -0.01695945 -4.86787889 -0.34160554 0 0 Z " fill="#321E18" transform="translate(127,23)"/>
<path d="M0 0 C-2.40689803 2.72675159 -4.92471023 4.11966596 -8.1875 5.6875 C-9.08855469 6.12449219 -9.98960937 6.56148437 -10.91796875 7.01171875 C-11.94857422 7.50091797 -11.94857422 7.50091797 -13 8 C-12.67 7.01 -12.34 6.02 -12 5 C-11.34 5 -10.68 5 -10 5 C-10 4.01 -10 3.02 -10 2 C-6.3558226 -0.4294516 -4.28758728 -0.16179575 0 0 Z " fill="#EA8270" transform="translate(173,198)"/>
<path d="M0 0 C0.99 0.33 1.98 0.66 3 1 C3.680625 1.165 4.36125 1.33 5.0625 1.5 C7 2 7 2 9 3 C9 4.32 9 5.64 9 7 C6.03 6.505 6.03 6.505 3 6 C3 5.34 3 4.68 3 4 C2.34 4 1.68 4 1 4 C0.67 2.68 0.34 1.36 0 0 Z " fill="#F68376" transform="translate(151,113)"/>
<path d="M0 0 C0.33 0 0.66 0 1 0 C1 2.31 1 4.62 1 7 C2.65 6.67 4.3 6.34 6 6 C5.67 7.32 5.34 8.64 5 10 C3.02 10 1.04 10 -1 10 C-1.125 2.25 -1.125 2.25 0 0 Z " fill="#50322E" transform="translate(148,138)"/>
<path d="M0 0 C3.9745504 0.69849772 7.26574098 2.62892769 10.75 4.5625 C11.65298828 5.0565332 11.65298828 5.0565332 12.57421875 5.56054688 C14.05170503 6.3696465 15.52616036 7.18427662 17 8 C13.47873965 9.17375345 12.19712989 8.541482 8.91796875 7.03125 C5.69994378 5.3009881 2.88737935 3.23919215 0 1 C0 0.67 0 0.34 0 0 Z " fill="#412523" transform="translate(172,50)"/>
<path d="M0 0 C3 1 3 1 5 4 C2.525 5.485 2.525 5.485 0 7 C-0.66 6.34 -1.32 5.68 -2 5 C-2 3.68 -2 2.36 -2 1 C-1.34 0.67 -0.68 0.34 0 0 Z " fill="#FB8273" transform="translate(71,55)"/>
<path d="M0 0 C-2.67478244 1.6627026 -4.9995144 2.99983813 -8 4 C-8.22609337 6.12364481 -8.22609337 6.12364481 -6.5 7.625 C-6.005 8.07875 -5.51 8.5325 -5 9 C-6.65 8.67 -8.3 8.34 -10 8 C-10 6.02 -10 4.04 -10 2 C-3.375 -1.125 -3.375 -1.125 0 0 Z " fill="#DB7A72" transform="translate(74,123)"/>
<path d="M0 0 C2.31 0 4.62 0 7 0 C3.47673758 3.10876096 0.51454315 4.72415085 -4 6 C-4.99 6.33 -5.98 6.66 -7 7 C-7 6.01 -7 5.02 -7 4 C-4.69 3.34 -2.38 2.68 0 2 C0 1.34 0 0.68 0 0 Z " fill="#CD7569" transform="translate(168,133)"/>
<path d="M0 0 C-4.44602302 4.44602302 -9.01298852 5.11647986 -15 6 C-13.62034266 3.24068532 -11.91419385 2.70578866 -9.1875 1.3125 C-7.87845703 0.62607422 -7.87845703 0.62607422 -6.54296875 -0.07421875 C-3.7921588 -1.07566569 -2.68514734 -1.03274898 0 0 Z " fill="#6E403E" transform="translate(93,120)"/>
<path d="M0 0 C0 0.66 0 1.32 0 2 C-0.53625 2.12375 -1.0725 2.2475 -1.625 2.375 C-4.4948864 3.13023326 -7.2410121 3.89640484 -10 5 C-10.33 5.99 -10.66 6.98 -11 8 C-11.99 7.67 -12.98 7.34 -14 7 C-12.6875 5 -12.6875 5 -11 3 C-10.01 3 -9.02 3 -8 3 C-8 2.34 -8 1.68 -8 1 C-5.29120665 -0.35439668 -2.99066732 -0.06501451 0 0 Z " fill="#F6847D" transform="translate(126,26)"/>
<path d="M0 0 C2.475 0.495 2.475 0.495 5 1 C5 1.66 5 2.32 5 3 C8.3 3 11.6 3 15 3 C11 6 11 6 8.625 5.9375 C5.33958788 4.76413853 2.79087363 3.07692921 0 1 C0 0.67 0 0.34 0 0 Z " fill="#5B352E" transform="translate(115,211)"/>
<path d="M0 0 C0.66 0.33 1.32 0.66 2 1 C0.56839732 2.00842453 -0.87051453 3.00647891 -2.3125 4 C-3.11300781 4.556875 -3.91351563 5.11375 -4.73828125 5.6875 C-7 7 -7 7 -10 7 C-10 7.66 -10 8.32 -10 9 C-10.99 9.33 -11.98 9.66 -13 10 C-13 9.34 -13 8.68 -13 8 C-12.34 8 -11.68 8 -11 8 C-11 7.34 -11 6.68 -11 6 C-10.01 6 -9.02 6 -8 6 C-8 5.01 -8 4.02 -8 3 C-7.01 2.67 -6.02 2.34 -5 2 C-4.34 2.33 -3.68 2.66 -3 3 C-3 2.34 -3 1.68 -3 1 C-2.01 0.67 -1.02 0.34 0 0 Z " fill="#3F2724" transform="translate(148,201)"/>
<path d="M0 0 C2.64 0.33 5.28 0.66 8 1 C8 1.99 8 2.98 8 4 C5.69 4.33 3.38 4.66 1 5 C0.67 3.35 0.34 1.7 0 0 Z " fill="#3D2924" transform="translate(162,125)"/>
<path d="M0 0 C8.39374956 0.35193918 8.39374956 0.35193918 10.8125 2.9375 C11.204375 3.618125 11.59625 4.29875 12 5 C14.08334635 6.2516467 14.08334635 6.2516467 16 7 C15.01 7.495 15.01 7.495 14 8 C11.55667274 6.92481882 9.23245477 5.80191434 6.875 4.5625 C6.21628906 4.22412109 5.55757812 3.88574219 4.87890625 3.53710938 C3.24893453 2.69850074 1.62398091 1.85015189 0 1 C0 0.67 0 0.34 0 0 Z " fill="#70433C" transform="translate(158,113)"/>
<path d="M0 0 C0.33 0 0.66 0 1 0 C1.4375 2.1875 1.4375 2.1875 1 5 C-1.13995327 6.98441782 -3.50175965 8.5023304 -6 10 C-6.33 9.01 -6.66 8.02 -7 7 C-6.030625 6.401875 -5.06125 5.80375 -4.0625 5.1875 C-0.76947958 3.28872491 -0.76947958 3.28872491 0 0 Z " fill="#482A28" transform="translate(213,172)"/>
<path d="M0 0 C2.97 0.33 5.94 0.66 9 1 C9.33 2.32 9.66 3.64 10 5 C11.32 5.33 12.64 5.66 14 6 C13.01 6.495 13.01 6.495 12 7 C9.1796875 5.78515625 9.1796875 5.78515625 5.875 4.0625 C4.77929688 3.49660156 3.68359375 2.93070313 2.5546875 2.34765625 C1.71164063 1.90292969 0.86859375 1.45820312 0 1 C0 0.67 0 0.34 0 0 Z " fill="#B76A5E" transform="translate(144,46)"/>
<path d="M0 0 C-1.4160599 0.79275148 -2.83287553 1.58415312 -4.25 2.375 C-5.43335937 3.03628906 -5.43335937 3.03628906 -6.640625 3.7109375 C-8.73914197 4.85747823 -10.8536077 5.94649552 -13 7 C-13 6.01 -13 5.02 -13 4 C-3.42105263 -1.71052632 -3.42105263 -1.71052632 0 0 Z " fill="#4F322D" transform="translate(112,31)"/>
<path d="M0 0 C0.66 0.33 1.32 0.66 2 1 C0.68 1.33 -0.64 1.66 -2 2 C-2 3.65 -2 5.3 -2 7 C-0.68 7.33 0.64 7.66 2 8 C0.02 8.33 -1.96 8.66 -4 9 C-4 6.69 -4 4.38 -4 2 C-2.125 0.9375 -2.125 0.9375 0 0 Z " fill="#C4756B" transform="translate(153,136)"/>
<path d="M0 0 C-4.625 3 -4.625 3 -8 3 C-8.33 3.66 -8.66 4.32 -9 5 C-10.65 5 -12.3 5 -14 5 C-12.53698952 2.07397905 -10.58977236 1.90294791 -7.5625 0.8125 C-6.57378906 0.44769531 -5.58507812 0.08289063 -4.56640625 -0.29296875 C-2 -1 -2 -1 0 0 Z " fill="#CD746B" transform="translate(169,131)"/>
<path d="M0 0 C1.98 0.66 3.96 1.32 6 2 C6 3.65 6 5.3 6 7 C4.02 7.66 2.04 8.32 0 9 C0 8.34 0 7.68 0 7 C1.32 7 2.64 7 4 7 C3.73323796 5.01508358 3.73323796 5.01508358 3 3 C2.01 2.67 1.02 2.34 0 2 C0 1.34 0 0.68 0 0 Z " fill="#D17E75" transform="translate(176,123)"/>
<path d="M0 0 C0.33 0.66 0.66 1.32 1 2 C0.38125 2.0825 -0.2375 2.165 -0.875 2.25 C-3.67505419 3.23825442 -3.74113932 4.40359985 -5 7 C-7.125 8.25 -7.125 8.25 -9 9 C-9 8.01 -9 7.02 -9 6 C-6.06973918 3.2650899 -3.82272915 1.27424305 0 0 Z " fill="#573530" transform="translate(105,44)"/>
<path d="M0 0 C-6.28571429 5.57142857 -6.28571429 5.57142857 -10 6 C-10 5.01 -10 4.02 -10 3 C-3.375 -1.125 -3.375 -1.125 0 0 Z " fill="#5B362D" transform="translate(87,45)"/>
<path d="M0 0 C3.63 1.98 7.26 3.96 11 6 C8 7 8 7 5.5 6.25 C3.10683792 5.05341896 1.65094947 4.08540985 0 2 C0 1.34 0 0.68 0 0 Z " fill="#D87C6F" transform="translate(50,175)"/>
<path d="M0 0 C0.99 0 1.98 0 3 0 C3 2.31 3 4.62 3 7 C3.66 7 4.32 7 5 7 C4.67 7.66 4.34 8.32 4 9 C2.68 8.34 1.36 7.68 0 7 C0 4.69 0 2.38 0 0 Z " fill="#D17670" transform="translate(149,110)"/>
<path d="M0 0 C0.66 0.33 1.32 0.66 2 1 C2 1.99 2 2.98 2 4 C-0.97 4.66 -3.94 5.32 -7 6 C-4.71658281 3.71658281 -2.59070454 1.87602742 0 0 Z " fill="#3E2C28" transform="translate(62,69)"/>
<path d="M0 0 C0.98120464 3.05263664 0.98120464 4.94736336 0 8 C-0.66 8 -1.32 8 -2 8 C-2 8.66 -2 9.32 -2 10 C-2.66 10 -3.32 10 -4 10 C-4.33 10.99 -4.66 11.98 -5 13 C-4.125 8.25 -4.125 8.25 -3 6 C-2.34 6 -1.68 6 -1 6 C-0.67 4.02 -0.34 2.04 0 0 Z " fill="#B1645B" transform="translate(123,116)"/>
<path d="M0 0 C3.48670834 1.1094072 6.77484237 2.26337666 10 4 C10 4.66 10 5.32 10 6 C6.05879291 5.43697042 3.2491277 4.3208055 0 2 C0 1.34 0 0.68 0 0 Z " fill="#4F3027" transform="translate(86,206)"/>
<path d="M0 0 C0.66 0.33 1.32 0.66 2 1 C1.79375 1.61875 1.5875 2.2375 1.375 2.875 C1.25125 3.57625 1.1275 4.2775 1 5 C1.66 5.66 2.32 6.32 3 7 C0.03824877 6.38722388 -1.38058783 5.74627478 -4 4 C-3.67 3.01 -3.34 2.02 -3 1 C-2.01 0.67 -1.02 0.34 0 0 Z " fill="#F98576" transform="translate(69,125)"/>
<path d="M0 0 C-2 3 -2 3 -4.625 3.6875 C-5.800625 3.8421875 -5.800625 3.8421875 -7 4 C-7 2.68 -7 1.36 -7 0 C-4.3333581 -1.33332095 -2.83319697 -0.67102033 0 0 Z " fill="#523630" transform="translate(73,120)"/>
<path d="M0 0 C0.99 0.66 1.98 1.32 3 2 C2.34 3.32 1.68 4.64 1 6 C-0.32 5.67 -1.64 5.34 -3 5 C-3 3 -3 3 -1.5 1.375 C-1.005 0.92125 -0.51 0.4675 0 0 Z " fill="#FB8273" transform="translate(106,209)"/>
<path d="M0 0 C1.65 0 3.3 0 5 0 C5.2475 0.639375 5.495 1.27875 5.75 1.9375 C6.81562433 4.18741541 6.81562433 4.18741541 9.125 4.75 C9.74375 4.8325 10.3625 4.915 11 5 C10.01 5.495 10.01 5.495 9 6 C6.8359375 5.00390625 6.8359375 5.00390625 4.375 3.5625 C3.55773437 3.08941406 2.74046875 2.61632812 1.8984375 2.12890625 C1.27195312 1.75636719 0.64546875 1.38382813 0 1 C0 0.67 0 0.34 0 0 Z " fill="#B2685D" transform="translate(75,199)"/>
<path d="M0 0 C2.64 0.33 5.28 0.66 8 1 C8 1.66 8 2.32 8 3 C8.66 3.33 9.32 3.66 10 4 C5.74357648 4.3648363 3.46444495 3.47460354 0 1 C0 0.67 0 0.34 0 0 Z " fill="#432D25" transform="translate(148,118)"/>
<path d="M0 0 C0.66 0.33 1.32 0.66 2 1 C0.6875 2.5 0.6875 2.5 -1 4 C-1.99 4 -2.98 4 -4 4 C-4 4.66 -4 5.32 -4 6 C-5.32 5.67 -6.64 5.34 -8 5 C-6.35 4.34 -4.7 3.68 -3 3 C-3 2.34 -3 1.68 -3 1 C-2.01 0.67 -1.02 0.34 0 0 Z " fill="#A66058" transform="translate(193,176)"/>
<path d="M0 0 C1.21386936 3.64160808 0.6674695 4.33165469 -0.9375 7.6875 C-1.31777344 8.49574219 -1.69804688 9.30398437 -2.08984375 10.13671875 C-2.39019531 10.75160156 -2.69054687 11.36648437 -3 12 C-4.29922995 9.4015401 -3.81286289 8.24038549 -3.1875 5.4375 C-3.01605469 4.63183594 -2.84460938 3.82617188 -2.66796875 2.99609375 C-2 1 -2 1 0 0 Z " fill="#B6695F" transform="translate(121,138)"/>
<path d="M0 0 C4.7517398 0.43197635 6.92000054 1.32769295 10 5 C5.75354935 5 3.61475228 3.18249194 0 1 C0 0.67 0 0.34 0 0 Z " fill="#5B3932" transform="translate(163,46)"/>
<path d="M0 0 C0.66 0 1.32 0 2 0 C2 1.32 2 2.64 2 4 C-2.455 4.495 -2.455 4.495 -7 5 C-5.60683123 2.21366246 -3.84019484 2.06507306 -1 1 C-0.67 0.67 -0.34 0.34 0 0 Z " fill="#CE7468" transform="translate(67,56)"/>
<path d="M0 0 C0.66 0.33 1.32 0.66 2 1 C1.01 1.33 0.02 1.66 -1 2 C-1 2.66 -1 3.32 -1 4 C-4 6 -4 6 -6.1875 5.625 C-6.785625 5.41875 -7.38375 5.2125 -8 5 C-6.71475739 4.13619741 -5.42157581 3.28419631 -4.125 2.4375 C-3.04605469 1.72400391 -3.04605469 1.72400391 -1.9453125 0.99609375 C-1.30335937 0.66738281 -0.66140625 0.33867188 0 0 Z " fill="#794540" transform="translate(97,48)"/>
<path d="M0 0 C3.96 1.98 3.96 1.98 8 4 C8 4.33 8 4.66 8 5 C6.02 5 4.04 5 2 5 C1.34 3.35 0.68 1.7 0 0 Z " fill="#D9796F" transform="translate(155,42)"/>
<path d="M0 0 C2.64 0 5.28 0 8 0 C8.33 1.32 8.66 2.64 9 4 C6.03 3.01 3.06 2.02 0 1 C0 0.67 0 0.34 0 0 Z " fill="#C06A61" transform="translate(156,120)"/>
<path d="M0 0 C0.66 0 1.32 0 2 0 C2 1.98 2 3.96 2 6 C0.02 6.99 0.02 6.99 -2 8 C-1.34 5.36 -0.68 2.72 0 0 Z " fill="#57332D" transform="translate(136,104)"/>
<path d="M0 0 C-0.33 0.99 -0.66 1.98 -1 3 C-2.84765625 3.73046875 -2.84765625 3.73046875 -5.0625 4.1875 C-5.79597656 4.34605469 -6.52945313 4.50460938 -7.28515625 4.66796875 C-8.13400391 4.83232422 -8.13400391 4.83232422 -9 5 C-4.22727273 0 -4.22727273 0 0 0 Z " fill="#6E3D3B" transform="translate(54,75)"/>
<path d="M0 0 C3.48539917 0.64544429 6.02819057 2.10134397 9 4 C8.01 4.495 8.01 4.495 7 5 C4.64018187 4.06421005 2.30368736 3.06652192 0 2 C0 1.34 0 0.68 0 0 Z " fill="#AD645B" transform="translate(106,207)"/>
<path d="M0 0 C1.65 0 3.3 0 5 0 C5.33 0.99 5.66 1.98 6 3 C6.99 3 7.98 3 9 3 C9 3.66 9 4.32 9 5 C5.54074837 3.7508258 2.85306797 2.32472205 0 0 Z " fill="#CB746A" transform="translate(82,138)"/>
<path d="M0 0 C2.97 0.495 2.97 0.495 6 1 C5.67 2.32 5.34 3.64 5 5 C3.35 3.35 1.7 1.7 0 0 Z " fill="#FA837A" transform="translate(189,64)"/>
</svg>
